Armada-Compressed_Bold.ufo
<glyph name="exclam" format="1">
  <advance width="115"/>
  <unicode hex="0021"/>
  <outline>
    <contour>
      <point x="105" y="153" type="line"/>
      <point x="10" y="153" type="line"/>
      <point x="10" y="720" type="line"/>
      <point x="105" y="720" type="line"/>
    </contour>
    <contour>
      <point x="105" y="0" type="line"/>
      <point x="10" y="0" type="line"/>
      <point x="10" y="126" type="line"/>
      <point x="105" y="126" type="line"/>
    </contour>
  </outline>
</glyph>
<glyph name="quotedbl" format="1">
  <advance width="221"/>
  <unicode hex="0022"/>
  <outline>
    <contour>
      <point x="212" y="439" type="line"/>
      <point x="121" y="439" type="line"/>
      <point x="121" y="720" type="line"/>
      <point x="212" y="720" type="line"/>
    </contour>
    <contour>
      <point x="101" y="439" type="line"/>
      <point x="10" y="439" type="line"/>
      <point x="10" y="720" type="line"/>
      <point x="101" y="720" type="line"/>
    </contour>
  </outline>
</glyph>
<glyph name="numbersign" format="1">
  <advance width="241"/>
  <unicode hex="0023"/>
  <outline>
    <contour>
      <point x="237" y="208" type="line"/>
      <point x="221" y="208" type="line"/>
      <point x="221" y="0" type="line"/>
      <point x="131" y="0" type="line"/>
      <point x="131" y="208" type="line"/>
      <point x="110" y="208" type="line"/>
      <point x="110" y="0" type="line"/>
      <point x="20" y="0" type="line"/>
      <point x="20" y="208" type="line"/>
      <point x="4" y="208" type="line"/>
      <point x="4" y="277" type="line"/>
      <point x="20" y="277" type="line"/>
      <point x="20" y="446" type="line"/>
      <point x="4" y="446" type="line"/>
      <point x="4" y="514" type="line"/>
      <point x="20" y="514" type="line"/>
      <point x="20" y="720" type="line"/>
      <point x="110" y="720" type="line"/>
      <point x="110" y="514" type="line"/>
      <point x="131" y="514" type="line"/>
      <point x="131" y="720" type="line"/>
      <point x="221" y="720" type="line"/>
      <point x="221" y="514" type="line"/>
      <point x="237" y="514" type="line"/>
      <point x="237" y="446" type="line"/>
      <point x="221" y="446" type="line"/>
      <point x="221" y="277" type="line"/>
      <point x="237" y="277" type="line"/>
    </contour>
    <contour>
      <point x="131" y="271" type="line"/>
      <point x="131" y="452" type="line"/>
      <point x="110" y="452" type="line"/>
      <point x="110" y="271" type="line"/>
    </contour>
  </outline>
</glyph>
<glyph name="dollar" format="1">
  <advance width="235"/>
  <unicode hex="0024"/>
  <outline>
    <contour>
      <point x="225" y="19" type="line"/>
      <point x="207" y="10"/>
      <point x="186" y="4"/>
      <point x="165" y="1" type="curve"/>
      <point x="165" y="-59" type="line"/>
      <point x="70" y="-59" type="line"/>
      <point x="70" y="1" type="line"/>
      <point x="50" y="4"/>
      <point x="29" y="10"/>
      <point x="10" y="19" type="curve"/>
      <point x="10" y="284" type="line"/>
      <point x="108" y="284" type="line"/>
      <point x="108" y="69" type="line"/>
      <point x="111" y="68"/>
      <point x="114" y="67"/>
      <point x="118" y="67" type="curve" smooth="yes"/>
      <point x="121" y="67"/>
      <point x="125" y="68"/>
      <point x="128" y="69" type="curve"/>
      <point x="128" y="299" type="line"/>
      <point x="10" y="374" type="line"/>
      <point x="10" y="701" type="line"/>
      <point x="29" y="710"/>
      <point x="50" y="716"/>
      <point x="70" y="719" type="curve"/>
      <point x="70" y="779" type="line"/>
      <point x="165" y="779" type="line"/>
      <point x="165" y="719" type="line"/>
      <point x="186" y="716"/>
      <point x="207" y="710"/>
      <point x="225" y="701" type="curve"/>
      <point x="225" y="436" type="line"/>
      <point x="128" y="436" type="line"/>
      <point x="128" y="650" type="line"/>
      <point x="125" y="652"/>
      <point x="121" y="652"/>
      <point x="118" y="652" type="curve" smooth="yes"/>
      <point x="114" y="652"/>
      <point x="111" y="652"/>
      <point x="108" y="650" type="curve"/>
      <point x="108" y="433" type="line"/>
      <point x="225" y="359" type="line"/>
    </contour>
  </outline>
</glyph>
<glyph name="ampersand" format="1">
  <advance width="244"/>
  <unicode hex="0026"/>
  <outline>
    <contour>
      <point x="241" y="328" type="line"/>
      <point x="225" y="328" type="line"/>
      <point x="225" y="17" type="line"/>
      <point x="193" y="1"/>
      <point x="154" y="-5"/>
      <point x="118" y="-5" type="curve" smooth="yes"/>
      <point x="81" y="-5"/>
      <point x="43" y="1"/>
      <point x="10" y="17" type="curve"/>
      <point x="10" y="355" type="line"/>
      <point x="20" y="361"/>
      <point x="45" y="367"/>
      <point x="64" y="369" type="curve"/>
      <point x="45" y="372"/>
      <point x="20" y="378"/>
      <point x="10" y="383" type="curve"/>
      <point x="10" y="703" type="line"/>
      <point x="43" y="719"/>
      <point x="81" y="725"/>
      <point x="118" y="725" type="curve" smooth="yes"/>
      <point x="154" y="725"/>
      <point x="193" y="719"/>
      <point x="225" y="703" type="curve"/>
      <point x="225" y="439" type="line"/>
      <point x="128" y="439" type="line"/>
      <point x="128" y="651" type="line"/>
      <point x="125" y="653"/>
      <point x="121" y="653"/>
      <point x="118" y="653" type="curve" smooth="yes"/>
      <point x="114" y="653"/>
      <point x="111" y="653"/>
      <point x="108" y="651" type="curve"/>
      <point x="108" y="410" type="line"/>
      <point x="113" y="405"/>
      <point x="121" y="403"/>
      <point x="127" y="403" type="curve" smooth="yes"/>
      <point x="241" y="403" type="line"/>
    </contour>
    <contour>
      <point x="128" y="64" type="curve"/>
      <point x="128" y="334" type="line"/>
      <point x="127" y="334"/>
      <point x="125" y="334"/>
      <point x="124" y="334" type="curve" smooth="yes"/>
      <point x="119" y="334"/>
      <point x="112" y="333"/>
      <point x="108" y="328" type="curve"/>
      <point x="108" y="64" type="line"/>
      <point x="111" y="63"/>
      <point x="114" y="62"/>
      <point x="118" y="62" type="curve" smooth="yes"/>
      <point x="121" y="62"/>
      <point x="125" y="63"/>
    </contour>
  </outline>
</glyph>
<glyph name="quotesingle" format="1">
  <advance width="112"/>
  <unicode hex="0027"/>
  <outline>
    <contour>
      <point x="102" y="439" type="line"/>
      <point x="10" y="439" type="line"/>
      <point x="10" y="720" type="line"/>
      <point x="102" y="720" type="line"/>
    </contour>
  </outline>
</glyph>
<glyph name="parenleft" format="1">
  <advance width="144"/>
  <unicode hex="0028"/>
  <outline>
    <contour>
      <point x="137" y="-1" type="line"/>
      <point x="76" y="-1"/>
      <point x="46" y="6"/>
      <point x="10" y="27" type="curve"/>
      <point x="10" y="693" type="line"/>
      <point x="46" y="714"/>
      <point x="76" y="721"/>
      <point x="137" y="721" type="curve"/>
      <point x="137" y="635" type="line"/>
      <point x="125" y="635"/>
      <point x="113" y="634"/>
      <point x="105" y="629" type="curve"/>
      <point x="105" y="91" type="line"/>
      <point x="113" y="86"/>
      <point x="125" y="85"/>
      <point x="137" y="85" type="curve"/>
    </contour>
  </outline>
</glyph>
<glyph name="parenright" format="1">
  <advance width="144"/>
  <unicode hex="0029"/>
  <outline>
    <contour>
      <point x="134" y="27" type="line"/>
      <point x="98" y="6"/>
      <point x="68" y="-1"/>
      <point x="6" y="-1" type="curve"/>
      <point x="6" y="85" type="line"/>
      <point x="18" y="85"/>
      <point x="30" y="86"/>
      <point x="39" y="91" type="curve"/>
      <point x="39" y="629" type="line"/>
      <point x="30" y="634"/>
      <point x="18" y="635"/>
      <point x="6" y="635" type="curve"/>
      <point x="6" y="721" type="line"/>
      <point x="68" y="721"/>
      <point x="98" y="714"/>
      <point x="134" y="693" type="curve"/>
    </contour>
  </outline>
</glyph>
<glyph name="asterisk" format="1">
  <advance width="290"/>
  <unicode hex="002A"/>
  <outline>
    <contour>
      <point x="280" y="282" type="line"/>
      <point x="200" y="282" type="line"/>
      <point x="200" y="429" type="line"/>
      <point x="196" y="432"/>
      <point x="190" y="434"/>
      <point x="185" y="435" type="curve"/>
      <point x="185" y="217" type="line"/>
      <point x="105" y="217" type="line"/>
      <point x="105" y="436" type="line"/>
      <point x="100" y="434"/>
      <point x="94" y="432"/>
      <point x="90" y="429" type="curve"/>
      <point x="90" y="282" type="line"/>
      <point x="10" y="282" type="line"/>
      <point x="10" y="454" type="line"/>
      <point x="18" y="459"/>
      <point x="42" y="466"/>
      <point x="62" y="470" type="curve"/>
      <point x="42" y="473"/>
      <point x="18" y="481"/>
      <point x="10" y="486" type="curve"/>
      <point x="10" y="657" type="line"/>
      <point x="90" y="657" type="line"/>
      <point x="90" y="511" type="line"/>
      <point x="94" y="507"/>
      <point x="100" y="505"/>
      <point x="105" y="504" type="curve"/>
      <point x="105" y="720" type="line"/>
      <point x="185" y="720" type="line"/>
      <point x="185" y="504" type="line"/>
      <point x="190" y="505"/>
      <point x="196" y="507"/>
      <point x="200" y="511" type="curve"/>
      <point x="200" y="657" type="line"/>
      <point x="280" y="657" type="line"/>
      <point x="280" y="487" type="line"/>
      <point x="271" y="481"/>
      <point x="248" y="474"/>
      <point x="228" y="470" type="curve"/>
      <point x="248" y="466"/>
      <point x="271" y="459"/>
      <point x="280" y="454" type="curve"/>
    </contour>
  </outline>
</glyph>
<glyph name="plus" format="1">
  <advance width="167"/>
  <unicode hex="002B"/>
  <outline>
    <contour>
      <point x="163" y="331" type="line"/>
      <point x="125" y="331" type="line"/>
      <point x="125" y="242" type="line"/>
      <point x="42" y="242" type="line"/>
      <point x="42" y="331" type="line"/>
      <point x="4" y="331" type="line"/>
      <point x="4" y="411" type="line"/>
      <point x="42" y="411" type="line"/>
      <point x="42" y="500" type="line"/>
      <point x="125" y="500" type="line"/>
      <point x="125" y="411" type="line"/>
      <point x="163" y="411" type="line"/>
    </contour>
  </outline>
</glyph>
<glyph name="comma" format="1">
  <advance width="112"/>
  <unicode hex="002C"/>
  <outline>
    <contour>
      <point x="106" y="126" type="line"/>
      <point x="94" y="-52" type="line"/>
      <point x="1" y="-52" type="line"/>
      <point x="14" y="126" type="line"/>
    </contour>
  </outline>
</glyph>
<glyph name="hyphen" format="1">
  <advance width="111"/>
  <unicode hex="002D"/>
  <unicode hex="2010"/>
  <unicode hex="2011"/>
  <outline>
    <contour>
      <point x="107" y="269" type="line"/>
      <point x="4" y="269" type="line"/>
      <point x="4" y="356" type="line"/>
      <point x="107" y="356" type="line"/>
    </contour>
  </outline>
</glyph>
<glyph name="zero" format="1">
  <advance width="235"/>
  <unicode hex="0030"/>
  <outline>
    <contour>
      <point x="225" y="17" type="line"/>
      <point x="193" y="1"/>
      <point x="154" y="-5"/>
      <point x="118" y="-5" type="curve" smooth="yes"/>
      <point x="81" y="-5"/>
      <point x="43" y="1"/>
      <point x="10" y="17" type="curve"/>
      <point x="10" y="703" type="line"/>
      <point x="43" y="719"/>
      <point x="81" y="725"/>
      <point x="118" y="725" type="curve" smooth="yes"/>
      <point x="154" y="725"/>
      <point x="193" y="719"/>
      <point x="225" y="703" type="curve"/>
    </contour>
    <contour>
      <point x="128" y="69" type="curve"/>
      <point x="128" y="651" type="line"/>
      <point x="125" y="653"/>
      <point x="121" y="653"/>
      <point x="118" y="653" type="curve" smooth="yes"/>
      <point x="114" y="653"/>
      <point x="111" y="653"/>
      <point x="108" y="651" type="curve"/>
      <point x="108" y="69" type="line"/>
      <point x="111" y="67"/>
      <point x="114" y="67"/>
      <point x="118" y="67" type="curve" smooth="yes"/>
      <point x="121" y="67"/>
      <point x="125" y="67"/>
    </contour>
  </outline>
</glyph>
<glyph name="one" format="1">
  <advance width="157"/>
  <unicode hex="0031"/>
  <outline>
    <contour>
      <point x="152" y="0" type="line"/>
      <point x="6" y="0" type="line"/>
      <point x="6" y="86" type="line"/>
      <point x="30" y="86" type="line"/>
      <point x="30" y="634" type="line"/>
      <point x="6" y="634" type="line"/>
      <point x="6" y="720" type="line"/>
      <point x="128" y="720" type="line"/>
      <point x="128" y="86" type="line"/>
      <point x="152" y="86" type="line"/>
    </contour>
  </outline>
</glyph>
<glyph name="three" format="1">
  <advance width="235"/>
  <unicode hex="0033"/>
  <outline>
    <contour>
      <point x="225" y="17" type="line"/>
      <point x="193" y="1"/>
      <point x="154" y="-5"/>
      <point x="118" y="-5" type="curve" smooth="yes"/>
      <point x="81" y="-5"/>
      <point x="43" y="1"/>
      <point x="10" y="17" type="curve"/>
      <point x="10" y="285" type="line"/>
      <point x="108" y="285" type="line"/>
      <point x="108" y="70" type="line"/>
      <point x="111" y="69"/>
      <point x="114" y="68"/>
      <point x="118" y="68" type="curve" smooth="yes"/>
      <point x="121" y="68"/>
      <point x="125" y="69"/>
      <point x="128" y="70" type="curve"/>
      <point x="128" y="320" type="line"/>
      <point x="123" y="325"/>
      <point x="115" y="327"/>
      <point x="109" y="327" type="curve" smooth="yes"/>
      <point x="28" y="327" type="line"/>
      <point x="28" y="404" type="line"/>
      <point x="109" y="404" type="line" smooth="yes"/>
      <point x="115" y="404"/>
      <point x="123" y="406"/>
      <point x="128" y="411" type="curve"/>
      <point x="128" y="651" type="line"/>
      <point x="125" y="653"/>
      <point x="121" y="653"/>
      <point x="118" y="653" type="curve" smooth="yes"/>
      <point x="114" y="653"/>
      <point x="111" y="653"/>
      <point x="108" y="651" type="curve"/>
      <point x="108" y="440" type="line"/>
      <point x="10" y="440" type="line"/>
      <point x="10" y="703" type="line"/>
      <point x="43" y="719"/>
      <point x="81" y="725"/>
      <point x="118" y="725" type="curve" smooth="yes"/>
      <point x="154" y="725"/>
      <point x="193" y="719"/>
      <point x="225" y="703" type="curve"/>
      <point x="225" y="382" type="line"/>
      <point x="216" y="377"/>
      <point x="194" y="372"/>
      <point x="177" y="369" type="curve"/>
      <point x="194" y="367"/>
      <point x="216" y="361"/>
      <point x="225" y="355" type="curve"/>
    </contour>
  </outline>
</glyph>
<glyph name="four" format="1">
  <advance width="235"/>
  <unicode hex="0034"/>
  <outline>
    <contour>
      <point x="225" y="0" type="line"/>
      <point x="128" y="0" type="line"/>
      <point x="128" y="245" type="line"/>
      <point x="10" y="245" type="line"/>
      <point x="10" y="720" type="line"/>
      <point x="108" y="720" type="line"/>
      <point x="108" y="319" type="line"/>
      <point x="128" y="319" type="line"/>
      <point x="128" y="720" type="line"/>
      <point x="225" y="720" type="line"/>
    </contour>
  </outline>
</glyph>
<glyph name="five" format="1">
  <advance width="235"/>
  <unicode hex="0035"/>
  <outline>
    <contour>
      <point x="229" y="634" type="line"/>
      <point x="100" y="634" type="line"/>
      <point x="100" y="429" type="line"/>
      <point x="102" y="429"/>
      <point x="118" y="429"/>
      <point x="122" y="429" type="curve" smooth="yes"/>
      <point x="158" y="429"/>
      <point x="194" y="422"/>
      <point x="225" y="406" type="curve"/>
      <point x="225" y="17" type="line"/>
      <point x="193" y="1"/>
      <point x="154" y="-5"/>
      <point x="118" y="-5" type="curve" smooth="yes"/>
      <point x="81" y="-5"/>
      <point x="43" y="1"/>
      <point x="10" y="17" type="curve"/>
      <point x="10" y="283" type="line"/>
      <point x="108" y="283" type="line"/>
      <point x="108" y="69" type="line"/>
      <point x="111" y="67"/>
      <point x="114" y="67"/>
      <point x="118" y="67" type="curve" smooth="yes"/>
      <point x="121" y="67"/>
      <point x="125" y="67"/>
      <point x="128" y="69" type="curve"/>
      <point x="128" y="339" type="line"/>
      <point x="124" y="341"/>
      <point x="119" y="341"/>
      <point x="115" y="341" type="curve" smooth="yes"/>
      <point x="10" y="341" type="line"/>
      <point x="10" y="720" type="line"/>
      <point x="229" y="720" type="line"/>
    </contour>
  </outline>
</glyph>
<glyph name="six" format="1">
  <advance width="235"/>
  <unicode hex="0036"/>
  <outline>
    <contour>
      <point x="225" y="14" type="line"/>
      <point x="193" y="-2"/>
      <point x="154" y="-8"/>
      <point x="118" y="-8" type="curve" smooth="yes"/>
      <point x="81" y="-8"/>
      <point x="43" y="-2"/>
      <point x="10" y="14" type="curve"/>
      <point x="10" y="703" type="line"/>
      <point x="43" y="719"/>
      <point x="81" y="725"/>
      <point x="118" y="725" type="curve" smooth="yes"/>
      <point x="154" y="725"/>
      <point x="193" y="719"/>
      <point x="225" y="703" type="curve"/>
      <point x="225" y="437" type="line"/>
      <point x="128" y="437" type="line"/>
      <point x="128" y="650" type="line"/>
      <point x="125" y="651"/>
      <point x="121" y="652"/>
      <point x="118" y="652" type="curve" smooth="yes"/>
      <point x="114" y="652"/>
      <point x="111" y="651"/>
      <point x="108" y="650" type="curve"/>
      <point x="108" y="404" type="line"/>
      <point x="112" y="406"/>
      <point x="119" y="407"/>
      <point x="126" y="407" type="curve" smooth="yes"/>
      <point x="160" y="407"/>
      <point x="194" y="403"/>
      <point x="225" y="393" type="curve"/>
    </contour>
    <contour>
      <point x="128" y="62" type="curve"/>
      <point x="128" y="340" type="line"/>
      <point x="125" y="342"/>
      <point x="121" y="342"/>
      <point x="118" y="342" type="curve" smooth="yes"/>
      <point x="114" y="342"/>
      <point x="111" y="342"/>
      <point x="108" y="340" type="curve"/>
      <point x="108" y="62" type="line"/>
      <point x="111" y="60"/>
      <point x="114" y="60"/>
      <point x="118" y="60" type="curve" smooth="yes"/>
      <point x="121" y="60"/>
      <point x="125" y="60"/>
    </contour>
  </outline>
</glyph>
<glyph name="seven" format="1">
  <advance width="197"/>
  <unicode hex="0037"/>
  <outline>
    <contour>
      <point x="191" y="647" type="line"/>
      <point x="123" y="0" type="line"/>
      <point x="20" y="0" type="line"/>
      <point x="87" y="637" type="line"/>
      <point x="3" y="637" type="line"/>
      <point x="3" y="720" type="line"/>
      <point x="191" y="720" type="line"/>
    </contour>
  </outline>
</glyph>
<glyph name="eight" format="1">
  <advance width="231"/>
  <unicode hex="0038"/>
  <outline>
    <contour>
      <point x="225" y="17" type="line"/>
      <point x="193" y="1"/>
      <point x="154" y="-5"/>
      <point x="118" y="-5" type="curve" smooth="yes"/>
      <point x="81" y="-5"/>
      <point x="43" y="1"/>
      <point x="10" y="17" type="curve"/>
      <point x="10" y="355" type="line"/>
      <point x="20" y="361"/>
      <point x="45" y="367"/>
      <point x="64" y="369" type="curve"/>
      <point x="45" y="372"/>
      <point x="20" y="378"/>
      <point x="10" y="383" type="curve"/>
      <point x="10" y="703" type="line"/>
      <point x="43" y="719"/>
      <point x="81" y="725"/>
      <point x="118" y="725" type="curve" smooth="yes"/>
      <point x="154" y="725"/>
      <point x="193" y="719"/>
      <point x="225" y="703" type="curve"/>
      <point x="225" y="383" type="line"/>
      <point x="215" y="378"/>
      <point x="190" y="372"/>
      <point x="171" y="369" type="curve"/>
      <point x="190" y="367"/>
      <point x="215" y="361"/>
      <point x="225" y="355" type="curve"/>
    </contour>
    <contour>
      <point x="128" y="399" type="curve"/>
      <point x="128" y="656" type="line"/>
      <point x="125" y="657"/>
      <point x="121" y="658"/>
      <point x="118" y="658" type="curve" smooth="yes"/>
      <point x="114" y="658"/>
      <point x="111" y="657"/>
      <point x="108" y="656" type="curve"/>
      <point x="108" y="399" type="line"/>
      <point x="111" y="397"/>
      <point x="114" y="397"/>
      <point x="118" y="397" type="curve" smooth="yes"/>
      <point x="121" y="397"/>
      <point x="125" y="397"/>
    </contour>
    <contour>
      <point x="128" y="64" type="curve"/>
      <point x="128" y="332" type="line"/>
      <point x="125" y="334"/>
      <point x="121" y="334"/>
      <point x="118" y="334" type="curve" smooth="yes"/>
      <point x="114" y="334"/>
      <point x="111" y="334"/>
      <point x="108" y="332" type="curve"/>
      <point x="108" y="64" type="line"/>
      <point x="111" y="63"/>
      <point x="114" y="62"/>
      <point x="118" y="62" type="curve" smooth="yes"/>
      <point x="121" y="62"/>
      <point x="125" y="63"/>
    </contour>
  </outline>
</glyph>
<glyph name="nine" format="1">
  <advance width="235"/>
  <unicode hex="0039"/>
  <outline>
    <contour>
      <point x="225" y="17" type="line"/>
      <point x="193" y="1"/>
      <point x="154" y="-5"/>
      <point x="118" y="-5" type="curve" smooth="yes"/>
      <point x="81" y="-5"/>
      <point x="43" y="1"/>
      <point x="10" y="17" type="curve"/>
      <point x="10" y="283" type="line"/>
      <point x="108" y="283" type="line"/>
      <point x="108" y="70" type="line"/>
      <point x="111" y="69"/>
      <point x="114" y="68"/>
      <point x="118" y="68" type="curve" smooth="yes"/>
      <point x="121" y="68"/>
      <point x="125" y="69"/>
      <point x="128" y="70" type="curve"/>
      <point x="128" y="316" type="line"/>
      <point x="124" y="314"/>
      <point x="116" y="313"/>
      <point x="110" y="313" type="curve" smooth="yes"/>
      <point x="75" y="313"/>
      <point x="42" y="317"/>
      <point x="10" y="327" type="curve"/>
      <point x="10" y="703" type="line"/>
      <point x="43" y="719"/>
      <point x="81" y="725"/>
      <point x="118" y="725" type="curve" smooth="yes"/>
      <point x="154" y="725"/>
      <point x="193" y="719"/>
      <point x="225" y="703" type="curve"/>
    </contour>
    <contour>
      <point x="128" y="380" type="curve"/>
      <point x="128" y="656" type="line"/>
      <point x="125" y="657"/>
      <point x="121" y="658"/>
      <point x="118" y="658" type="curve" smooth="yes"/>
      <point x="114" y="658"/>
      <point x="111" y="657"/>
      <point x="108" y="656" type="curve"/>
      <point x="108" y="380" type="line"/>
      <point x="111" y="378"/>
      <point x="114" y="378"/>
      <point x="118" y="378" type="curve" smooth="yes"/>
      <point x="121" y="378"/>
      <point x="125" y="378"/>
    </contour>
  </outline>
</glyph>
<glyph name="colon" format="1">
  <advance width="112"/>
  <unicode hex="003A"/>
  <outline>
    <contour>
      <point x="102" y="354" type="line"/>
      <point x="10" y="354" type="line"/>
      <point x="10" y="480" type="line"/>
      <point x="102" y="480" type="line"/>
    </contour>
    <contour>
      <point x="102" y="0" type="line"/>
      <point x="10" y="0" type="line"/>
      <point x="10" y="126" type="line"/>
      <point x="102" y="126" type="line"/>
    </contour>
  </outline>
</glyph>
<glyph name="semicolon" format="1">
  <advance width="112"/>
  <unicode hex="003B"/>
  <outline>
    <contour>
      <point x="102" y="354" type="line"/>
      <point x="10" y="354" type="line"/>
      <point x="10" y="480" type="line"/>
      <point x="102" y="480" type="line"/>
    </contour>
    <contour>
      <point x="106" y="126" type="line"/>
      <point x="94" y="-52" type="line"/>
      <point x="1" y="-52" type="line"/>
      <point x="14" y="126" type="line"/>
    </contour>
  </outline>
</glyph>
<glyph name="less" format="1">
  <advance width="125"/>
  <unicode hex="003C"/>
  <outline>
    <contour>
      <point x="121" y="162" type="line"/>
      <point x="3" y="306" type="line"/>
      <point x="3" y="415" type="line"/>
      <point x="121" y="558" type="line"/>
      <point x="121" y="432" type="line"/>
      <point x="66" y="360" type="line"/>
      <point x="121" y="289" type="line"/>
    </contour>
  </outline>
</glyph>
<glyph name="equal" format="1">
  <advance width="142"/>
  <unicode hex="003D"/>
  <outline>
    <contour>
      <point x="137" y="383" type="line"/>
      <point x="5" y="383" type="line"/>
      <point x="5" y="469" type="line"/>
      <point x="137" y="469" type="line"/>
    </contour>
    <contour>
      <point x="137" y="272" type="line"/>
      <point x="5" y="272" type="line"/>
      <point x="5" y="359" type="line"/>
      <point x="137" y="359" type="line"/>
    </contour>
  </outline>
</glyph>
<glyph name="greater" format="1">
  <advance width="125"/>
  <unicode hex="003E"/>
  <outline>
    <contour>
      <point x="123" y="306" type="line"/>
      <point x="4" y="162" type="line"/>
      <point x="4" y="289" type="line"/>
      <point x="59" y="360" type="line"/>
      <point x="4" y="432" type="line"/>
      <point x="4" y="558" type="line"/>
      <point x="123" y="415" type="line"/>
    </contour>
  </outline>
</glyph>
<glyph name="question" format="1">
  <advance width="233"/>
  <unicode hex="003F"/>
  <outline>
    <contour>
      <point x="224" y="371" type="line"/>
      <point x="162" y="298" type="line"/>
      <point x="162" y="153" type="line"/>
      <point x="68" y="153" type="line"/>
      <point x="68" y="356" type="line"/>
      <point x="127" y="428" type="line"/>
      <point x="127" y="651" type="line"/>
      <point x="124" y="653"/>
      <point x="120" y="653"/>
      <point x="117" y="653" type="curve" smooth="yes"/>
      <point x="113" y="653"/>
      <point x="110" y="653"/>
      <point x="107" y="651" type="curve"/>
      <point x="107" y="435" type="line"/>
      <point x="9" y="435" type="line"/>
      <point x="9" y="703" type="line"/>
      <point x="42" y="719"/>
      <point x="80" y="725"/>
      <point x="117" y="725" type="curve" smooth="yes"/>
      <point x="153" y="725"/>
      <point x="192" y="718"/>
      <point x="224" y="703" type="curve"/>
    </contour>
    <contour>
      <point x="162" y="0" type="line"/>
      <point x="68" y="0" type="line"/>
      <point x="68" y="126" type="line"/>
      <point x="162" y="126" type="line"/>
    </contour>
  </outline>
</glyph>
<glyph name="at" format="1">
  <advance width="349"/>
  <unicode hex="0040"/>
  <outline>
    <contour>
      <point x="339" y="31" type="line"/>
      <point x="291" y="4"/>
      <point x="231" y="-5"/>
      <point x="175" y="-5" type="curve" smooth="yes"/>
      <point x="119" y="-5"/>
      <point x="58" y="4"/>
      <point x="10" y="31" type="curve"/>
      <point x="10" y="689" type="line"/>
      <point x="58" y="716"/>
      <point x="119" y="725"/>
      <point x="175" y="725" type="curve" smooth="yes"/>
      <point x="231" y="725"/>
      <point x="291" y="716"/>
      <point x="339" y="689" type="curve"/>
      <point x="339" y="332" type="line"/>
      <point x="246" y="332" type="line"/>
      <point x="246" y="96" type="line"/>
      <point x="226" y="89"/>
      <point x="202" y="85"/>
      <point x="175" y="85" type="curve" smooth="yes"/>
      <point x="148" y="85"/>
      <point x="124" y="89"/>
      <point x="104" y="96" type="curve"/>
      <point x="104" y="624" type="line"/>
      <point x="124" y="631"/>
      <point x="148" y="635"/>
      <point x="175" y="635" type="curve" smooth="yes"/>
      <point x="202" y="635"/>
      <point x="226" y="631"/>
      <point x="246" y="624" type="curve"/>
      <point x="246" y="396" type="line"/>
      <point x="269" y="396" type="line"/>
      <point x="269" y="639" type="line"/>
      <point x="239" y="652"/>
      <point x="207" y="657"/>
      <point x="175" y="657" type="curve" smooth="yes"/>
      <point x="142" y="657"/>
      <point x="111" y="652"/>
      <point x="82" y="639" type="curve"/>
      <point x="82" y="81" type="line"/>
      <point x="111" y="68"/>
      <point x="142" y="63"/>
      <point x="175" y="63" type="curve" smooth="yes"/>
      <point x="207" y="63"/>
      <point x="239" y="68"/>
      <point x="269" y="81" type="curve"/>
      <point x="269" y="294" type="line"/>
      <point x="339" y="294" type="line"/>
    </contour>
    <contour>
      <point x="186" y="142" type="curve"/>
      <point x="186" y="580" type="line"/>
      <point x="183" y="581"/>
      <point x="179" y="582"/>
      <point x="175" y="582" type="curve" smooth="yes"/>
      <point x="171" y="582"/>
      <point x="167" y="581"/>
      <point x="164" y="580" type="curve"/>
      <point x="164" y="142" type="line"/>
      <point x="167" y="140"/>
      <point x="171" y="140"/>
      <point x="175" y="140" type="curve" smooth="yes"/>
      <point x="179" y="140"/>
      <point x="183" y="140"/>
    </contour>
  </outline>
</glyph>
<glyph name="B" format="1">
  <advance width="235"/>
  <unicode hex="0042"/>
  <outline>
    <contour>
      <point x="225" y="27" type="line"/>
      <point x="195" y="8"/>
      <point x="155" y="0"/>
      <point x="113" y="0" type="curve" smooth="yes"/>
      <point x="10" y="0" type="line"/>
      <point x="10" y="720" type="line"/>
      <point x="112" y="720" type="line" smooth="yes"/>
      <point x="155" y="720"/>
      <point x="195" y="712"/>
      <point x="225" y="693" type="curve"/>
      <point x="225" y="386" type="line"/>
      <point x="215" y="381"/>
      <point x="190" y="375"/>
      <point x="171" y="373" type="curve"/>
      <point x="190" y="370"/>
      <point x="215" y="364"/>
      <point x="225" y="358" type="curve"/>
    </contour>
    <contour>
      <point x="127" y="406" type="curve"/>
      <point x="127" y="650" type="line"/>
      <point x="124" y="654"/>
      <point x="118" y="656"/>
      <point x="111" y="656" type="curve" smooth="yes"/>
      <point x="108" y="656" type="line"/>
      <point x="108" y="400" type="line"/>
      <point x="111" y="400" type="line" smooth="yes"/>
      <point x="118" y="400"/>
      <point x="124" y="403"/>
    </contour>
    <contour>
      <point x="128" y="70" type="curve"/>
      <point x="128" y="331" type="line"/>
      <point x="125" y="334"/>
      <point x="118" y="337"/>
      <point x="111" y="337" type="curve" smooth="yes"/>
      <point x="108" y="337" type="line"/>
      <point x="108" y="64" type="line"/>
      <point x="111" y="64" type="line" smooth="yes"/>
      <point x="118" y="64"/>
      <point x="125" y="66"/>
    </contour>
  </outline>
</glyph>
<glyph name="D" format="1">
  <advance width="235"/>
  <unicode hex="0044"/>
  <outline>
    <contour>
      <point x="225" y="31" type="line"/>
      <point x="192" y="8"/>
      <point x="151" y="0"/>
      <point x="113" y="0" type="curve" smooth="yes"/>
      <point x="10" y="0" type="line"/>
      <point x="10" y="720" type="line"/>
      <point x="113" y="720" type="line" smooth="yes"/>
      <point x="151" y="720"/>
      <point x="192" y="712"/>
      <point x="225" y="689" type="curve"/>
    </contour>
    <contour>
      <point x="128" y="75" type="curve"/>
      <point x="128" y="645" type="line"/>
      <point x="125" y="648"/>
      <point x="118" y="651"/>
      <point x="111" y="651" type="curve" smooth="yes"/>
      <point x="108" y="651" type="line"/>
      <point x="108" y="69" type="line"/>
      <point x="111" y="69" type="line" smooth="yes"/>
      <point x="118" y="69"/>
      <point x="125" y="72"/>
    </contour>
  </outline>
</glyph>
<glyph name="H" format="1">
  <advance width="235"/>
  <unicode hex="0048"/>
  <outline>
    <contour>
      <point x="225" y="0" type="line"/>
      <point x="128" y="0" type="line"/>
      <point x="128" y="334" type="line"/>
      <point x="108" y="334" type="line"/>
      <point x="108" y="0" type="line"/>
      <point x="10" y="0" type="line"/>
      <point x="10" y="720" type="line"/>
      <point x="108" y="720" type="line"/>
      <point x="108" y="408" type="line"/>
      <point x="128" y="408" type="line"/>
      <point x="128" y="720" type="line"/>
      <point x="225" y="720" type="line"/>
    </contour>
  </outline>
</glyph>
<glyph name="I" format="1">
  <advance width="118"/>
  <unicode hex="0049"/>
  <outline>
    <contour>
      <point x="108" y="0" type="line"/>
      <point x="10" y="0" type="line"/>
      <point x="10" y="720" type="line"/>
      <point x="108" y="720" type="line"/>
    </contour>
  </outline>
</glyph>
<glyph name="J" format="1">
  <advance width="161"/>
  <unicode hex="004A"/>
  <outline>
    <contour>
      <point x="151" y="22" type="line"/>
      <point x="121" y="7"/>
      <point x="85" y="0"/>
      <point x="45" y="0" type="curve" smooth="yes"/>
      <point x="4" y="0" type="line"/>
      <point x="4" y="84" type="line"/>
      <point x="38" y="84" type="line" smooth="yes"/>
      <point x="44" y="84"/>
      <point x="50" y="84"/>
      <point x="54" y="86" type="curve"/>
      <point x="54" y="720" type="line"/>
      <point x="151" y="720" type="line"/>
    </contour>
  </outline>
</glyph>
<glyph name="K" format="1">
  <advance width="235"/>
  <unicode hex="004B"/>
  <outline>
    <contour>
      <point x="225" y="0" type="line"/>
      <point x="128" y="0" type="line"/>
      <point x="128" y="329" type="line"/>
      <point x="125" y="333"/>
      <point x="118" y="336"/>
      <point x="111" y="336" type="curve" smooth="yes"/>
      <point x="108" y="336" type="line"/>
      <point x="108" y="0" type="line"/>
      <point x="10" y="0" type="line"/>
      <point x="10" y="720" type="line"/>
      <point x="108" y="720" type="line"/>
      <point x="108" y="408" type="line"/>
      <point x="111" y="408" type="line" smooth="yes"/>
      <point x="118" y="408"/>
      <point x="124" y="411"/>
      <point x="127" y="414" type="curve"/>
      <point x="127" y="720" type="line"/>
      <point x="225" y="720" type="line"/>
      <point x="225" y="386" type="line"/>
      <point x="215" y="381"/>
      <point x="190" y="375"/>
      <point x="171" y="373" type="curve"/>
      <point x="190" y="370"/>
      <point x="215" y="364"/>
      <point x="225" y="358" type="curve"/>
    </contour>
  </outline>
</glyph>
<glyph name="L" format="1">
  <advance width="161"/>
  <unicode hex="004C"/>
  <outline>
    <contour>
      <point x="157" y="0" type="line"/>
      <point x="10" y="0" type="line"/>
      <point x="10" y="720" type="line"/>
      <point x="108" y="720" type="line"/>
      <point x="108" y="84" type="line"/>
      <point x="157" y="84" type="line"/>
    </contour>
  </outline>
</glyph>
<glyph name="M" format="1">
  <advance width="348"/>
  <unicode hex="004D"/>
  <outline>
    <contour>
      <point x="338" y="0" type="line"/>
      <point x="242" y="0" type="line"/>
      <point x="242" y="652" type="line"/>
      <point x="237" y="654"/>
      <point x="229" y="655"/>
      <point x="222" y="655" type="curve"/>
      <point x="222" y="0" type="line"/>
      <point x="126" y="0" type="line"/>
      <point x="126" y="655" type="line"/>
      <point x="119" y="655"/>
      <point x="111" y="654"/>
      <point x="106" y="652" type="curve"/>
      <point x="106" y="0" type="line"/>
      <point x="10" y="0" type="line"/>
      <point x="10" y="702" type="line"/>
      <point x="56" y="720"/>
      <point x="112" y="727"/>
      <point x="174" y="727" type="curve" smooth="yes"/>
      <point x="236" y="727"/>
      <point x="292" y="720"/>
      <point x="338" y="702" type="curve"/>
    </contour>
  </outline>
</glyph>
<glyph name="N" format="1">
  <advance width="235"/>
  <unicode hex="004E"/>
  <outline>
    <contour>
      <point x="225" y="0" type="line"/>
      <point x="128" y="0" type="line"/>
      <point x="128" y="651" type="line"/>
      <point x="125" y="653"/>
      <point x="121" y="653"/>
      <point x="118" y="653" type="curve" smooth="yes"/>
      <point x="114" y="653"/>
      <point x="111" y="653"/>
      <point x="108" y="651" type="curve"/>
      <point x="108" y="0" type="line"/>
      <point x="10" y="0" type="line"/>
      <point x="10" y="703" type="line"/>
      <point x="43" y="719"/>
      <point x="81" y="725"/>
      <point x="118" y="725" type="curve" smooth="yes"/>
      <point x="154" y="725"/>
      <point x="193" y="719"/>
      <point x="225" y="703" type="curve"/>
    </contour>
  </outline>
</glyph>
<glyph name="P" format="1">
  <advance width="235"/>
  <unicode hex="0050"/>
  <outline>
    <contour>
      <point x="225" y="319" type="line"/>
      <point x="195" y="300"/>
      <point x="155" y="291"/>
      <point x="113" y="291" type="curve" smooth="yes"/>
      <point x="108" y="291" type="line"/>
      <point x="108" y="0" type="line"/>
      <point x="10" y="0" type="line"/>
      <point x="10" y="720" type="line"/>
      <point x="113" y="720" type="line" smooth="yes"/>
      <point x="155" y="720"/>
      <point x="195" y="711"/>
      <point x="225" y="692" type="curve"/>
    </contour>
    <contour>
      <point x="128" y="364" type="curve"/>
      <point x="128" y="646" type="line"/>
      <point x="125" y="650"/>
      <point x="118" y="653"/>
      <point x="111" y="653" type="curve" smooth="yes"/>
      <point x="108" y="653" type="line"/>
      <point x="108" y="358" type="line"/>
      <point x="111" y="358" type="line" smooth="yes"/>
      <point x="118" y="358"/>
      <point x="125" y="361"/>
    </contour>
  </outline>
</glyph>
<glyph name="Q" format="1">
  <advance width="235"/>
  <unicode hex="0051"/>
  <outline>
    <contour>
      <point x="225" y="17" type="line"/>
      <point x="207" y="7"/>
      <point x="186" y="1"/>
      <point x="165" y="-1" type="curve"/>
      <point x="165" y="-62" type="line"/>
      <point x="70" y="-62" type="line"/>
      <point x="70" y="-1" type="line"/>
      <point x="50" y="1"/>
      <point x="29" y="7"/>
      <point x="10" y="17" type="curve"/>
      <point x="10" y="703" type="line"/>
      <point x="43" y="719"/>
      <point x="81" y="725"/>
      <point x="118" y="725" type="curve" smooth="yes"/>
      <point x="154" y="725"/>
      <point x="193" y="719"/>
      <point x="225" y="703" type="curve"/>
    </contour>
    <contour>
      <point x="128" y="69" type="curve"/>
      <point x="128" y="651" type="line"/>
      <point x="125" y="653"/>
      <point x="121" y="653"/>
      <point x="118" y="653" type="curve" smooth="yes"/>
      <point x="114" y="653"/>
      <point x="111" y="653"/>
      <point x="108" y="651" type="curve"/>
      <point x="108" y="69" type="line"/>
      <point x="111" y="67"/>
      <point x="114" y="67"/>
      <point x="118" y="67" type="curve" smooth="yes"/>
      <point x="121" y="67"/>
      <point x="125" y="67"/>
    </contour>
  </outline>
</glyph>
<glyph name="R" format="1">
  <advance width="235"/>
  <unicode hex="0052"/>
  <outline>
    <contour>
      <point x="225" y="0" type="line"/>
      <point x="128" y="0" type="line"/>
      <point x="128" y="325" type="line"/>
      <point x="125" y="328"/>
      <point x="118" y="331"/>
      <point x="111" y="331" type="curve" smooth="yes"/>
      <point x="108" y="331" type="line"/>
      <point x="108" y="0" type="line"/>
      <point x="10" y="0" type="line"/>
      <point x="10" y="720" type="line"/>
      <point x="112" y="720" type="line" smooth="yes"/>
      <point x="155" y="720"/>
      <point x="195" y="712"/>
      <point x="225" y="693" type="curve"/>
      <point x="225" y="386" type="line"/>
      <point x="215" y="381"/>
      <point x="190" y="375"/>
      <point x="171" y="373" type="curve"/>
      <point x="190" y="370"/>
      <point x="215" y="364"/>
      <point x="225" y="358" type="curve"/>
    </contour>
    <contour>
      <point x="127" y="401" type="curve"/>
      <point x="127" y="650" type="line"/>
      <point x="124" y="654"/>
      <point x="118" y="656"/>
      <point x="111" y="656" type="curve" smooth="yes"/>
      <point x="108" y="656" type="line"/>
      <point x="108" y="395" type="line"/>
      <point x="111" y="395" type="line" smooth="yes"/>
      <point x="118" y="395"/>
      <point x="124" y="398"/>
    </contour>
  </outline>
</glyph>
<glyph name="T" format="1">
  <advance width="188"/>
  <unicode hex="0054"/>
  <outline>
    <contour>
      <point x="185" y="636" type="line"/>
      <point x="143" y="636" type="line"/>
      <point x="143" y="0" type="line"/>
      <point x="45" y="0" type="line"/>
      <point x="45" y="636" type="line"/>
      <point x="3" y="636" type="line"/>
      <point x="3" y="720" type="line"/>
      <point x="185" y="720" type="line"/>
    </contour>
  </outline>
</glyph>
<glyph name="U" format="1">
  <advance width="235"/>
  <unicode hex="0055"/>
  <outline>
    <contour>
      <point x="225" y="17" type="line"/>
      <point x="193" y="1"/>
      <point x="154" y="-5"/>
      <point x="118" y="-5" type="curve" smooth="yes"/>
      <point x="81" y="-5"/>
      <point x="43" y="1"/>
      <point x="10" y="17" type="curve"/>
      <point x="10" y="720" type="line"/>
      <point x="108" y="720" type="line"/>
      <point x="108" y="69" type="line"/>
      <point x="111" y="67"/>
      <point x="114" y="67"/>
      <point x="118" y="67" type="curve" smooth="yes"/>
      <point x="121" y="67"/>
      <point x="125" y="67"/>
      <point x="128" y="69" type="curve"/>
      <point x="128" y="720" type="line"/>
      <point x="225" y="720" type="line"/>
    </contour>
  </outline>
</glyph>
<glyph name="V" format="1">
  <advance width="235"/>
  <unicode hex="0056"/>
  <outline>
    <contour>
      <point x="225" y="264" type="line" smooth="yes"/>
      <point x="225" y="133"/>
      <point x="208" y="67"/>
      <point x="168" y="0" type="curve"/>
      <point x="68" y="0" type="line"/>
      <point x="27" y="67"/>
      <point x="10" y="133"/>
      <point x="10" y="264" type="curve" smooth="yes"/>
      <point x="10" y="720" type="line"/>
      <point x="108" y="720" type="line"/>
      <point x="108" y="264" type="line" smooth="yes"/>
      <point x="108" y="167"/>
      <point x="112" y="122"/>
      <point x="118" y="88" type="curve"/>
      <point x="123" y="122"/>
      <point x="128" y="167"/>
      <point x="128" y="264" type="curve" smooth="yes"/>
      <point x="128" y="720" type="line"/>
      <point x="225" y="720" type="line"/>
    </contour>
  </outline>
</glyph>
<glyph name="W" format="1">
  <advance width="348"/>
  <unicode hex="0057"/>
  <outline>
    <contour>
      <point x="338" y="18" type="line"/>
      <point x="292" y="0"/>
      <point x="236" y="-7"/>
      <point x="174" y="-7" type="curve" smooth="yes"/>
      <point x="112" y="-7"/>
      <point x="56" y="0"/>
      <point x="10" y="18" type="curve"/>
      <point x="10" y="720" type="line"/>
      <point x="106" y="720" type="line"/>
      <point x="106" y="68" type="line"/>
      <point x="111" y="66"/>
      <point x="119" y="65"/>
      <point x="126" y="65" type="curve"/>
      <point x="126" y="720" type="line"/>
      <point x="222" y="720" type="line"/>
      <point x="222" y="65" type="line"/>
      <point x="229" y="65"/>
      <point x="237" y="66"/>
      <point x="242" y="68" type="curve"/>
      <point x="242" y="720" type="line"/>
      <point x="338" y="720" type="line"/>
    </contour>
  </outline>
</glyph>
<glyph name="X" format="1">
  <advance width="235"/>
  <unicode hex="0058"/>
  <outline>
    <contour>
      <point x="225" y="0" type="line"/>
      <point x="128" y="0" type="line"/>
      <point x="128" y="333" type="line"/>
      <point x="125" y="334"/>
      <point x="121" y="335"/>
      <point x="118" y="335" type="curve" smooth="yes"/>
      <point x="114" y="335"/>
      <point x="111" y="334"/>
      <point x="108" y="333" type="curve"/>
      <point x="108" y="0" type="line"/>
      <point x="10" y="0" type="line"/>
      <point x="10" y="358" type="line"/>
      <point x="20" y="364"/>
      <point x="45" y="370"/>
      <point x="64" y="373" type="curve"/>
      <point x="45" y="375"/>
      <point x="20" y="381"/>
      <point x="10" y="386" type="curve"/>
      <point x="10" y="720" type="line"/>
      <point x="108" y="720" type="line"/>
      <point x="108" y="411" type="line"/>
      <point x="111" y="410"/>
      <point x="114" y="409"/>
      <point x="118" y="409" type="curve" smooth="yes"/>
      <point x="121" y="409"/>
      <point x="124" y="410"/>
      <point x="127" y="411" type="curve"/>
      <point x="127" y="720" type="line"/>
      <point x="225" y="720" type="line"/>
      <point x="225" y="386" type="line"/>
      <point x="215" y="381"/>
      <point x="190" y="375"/>
      <point x="171" y="373" type="curve"/>
      <point x="190" y="370"/>
      <point x="215" y="364"/>
      <point x="225" y="358" type="curve"/>
    </contour>
  </outline>
</glyph>
<glyph name="Y" format="1">
  <advance width="235"/>
  <unicode hex="0059"/>
  <outline>
    <contour>
      <point x="225" y="283" type="line"/>
      <point x="207" y="274"/>
      <point x="187" y="268"/>
      <point x="167" y="265" type="curve"/>
      <point x="167" y="0" type="line"/>
      <point x="69" y="0" type="line"/>
      <point x="69" y="265" type="line"/>
      <point x="49" y="268"/>
      <point x="29" y="274"/>
      <point x="10" y="283" type="curve"/>
      <point x="10" y="720" type="line"/>
      <point x="108" y="720" type="line"/>
      <point x="108" y="335" type="line"/>
      <point x="111" y="334"/>
      <point x="114" y="334"/>
      <point x="118" y="334" type="curve" smooth="yes"/>
      <point x="121" y="334"/>
      <point x="125" y="334"/>
      <point x="128" y="335" type="curve"/>
      <point x="128" y="720" type="line"/>
      <point x="225" y="720" type="line"/>
    </contour>
  </outline>
</glyph>
<glyph name="Z" format="1">
  <advance width="191"/>
  <unicode hex="005A"/>
  <outline>
    <contour>
      <point x="187" y="0" type="line"/>
      <point x="4" y="0" type="line"/>
      <point x="4" y="78" type="line"/>
      <point x="84" y="636" type="line"/>
      <point x="4" y="636" type="line"/>
      <point x="4" y="720" type="line"/>
      <point x="187" y="720" type="line"/>
      <point x="187" y="647" type="line"/>
      <point x="108" y="84" type="line"/>
      <point x="187" y="84" type="line"/>
    </contour>
  </outline>
</glyph>
<glyph name="bracketleft" format="1">
  <advance width="144"/>
  <unicode hex="005B"/>
  <outline>
    <contour>
      <point x="137" y="0" type="line"/>
      <point x="10" y="0" type="line"/>
      <point x="10" y="720" type="line"/>
      <point x="137" y="720" type="line"/>
      <point x="137" y="634" type="line"/>
      <point x="105" y="634" type="line"/>
      <point x="105" y="86" type="line"/>
      <point x="137" y="86" type="line"/>
    </contour>
  </outline>
</glyph>
<glyph name="bracketright" format="1">
  <advance width="144"/>
  <unicode hex="005D"/>
  <outline>
    <contour>
      <point x="134" y="0" type="line"/>
      <point x="6" y="0" type="line"/>
      <point x="6" y="86" type="line"/>
      <point x="39" y="86" type="line"/>
      <point x="39" y="634" type="line"/>
      <point x="6" y="634" type="line"/>
      <point x="6" y="720" type="line"/>
      <point x="134" y="720" type="line"/>
    </contour>
  </outline>
</glyph>
<glyph name="asciicircum" format="1">
  <advance width="217"/>
  <unicode hex="005E"/>
  <outline>
    <contour>
      <point x="215" y="350" type="line"/>
      <point x="123" y="350" type="line"/>
      <point x="109" y="627" type="line"/>
      <point x="94" y="350" type="line"/>
      <point x="2" y="350" type="line"/>
      <point x="51" y="721" type="line"/>
      <point x="167" y="721" type="line"/>
    </contour>
  </outline>
</glyph>
<glyph name="underscore" format="1">
  <advance width="188"/>
  <unicode hex="005F"/>
  <outline>
    <contour>
      <point x="188" y="-105" type="line"/>
      <point x="0" y="-105" type="line"/>
      <point x="0" y="-37" type="line"/>
      <point x="188" y="-37" type="line"/>
    </contour>
  </outline>
</glyph>
<glyph name="grave" format="1">
  <advance width="220"/>
  <unicode hex="0060"/>
  <outline>
    <contour>
      <point x="185" y="502" type="line"/>
      <point x="88" y="502" type="line"/>
      <point x="36" y="645" type="line"/>
      <point x="140" y="645" type="line"/>
    </contour>
  </outline>
</glyph>
<glyph name="a" format="1">
  <advance width="220"/>
  <unicode hex="0061"/>
  <outline>
    <contour>
      <point x="210" y="15" type="line"/>
      <point x="182" y="1"/>
      <point x="147" y="-5"/>
      <point x="110" y="-5" type="curve" smooth="yes"/>
      <point x="74" y="-5"/>
      <point x="39" y="1"/>
      <point x="10" y="15" type="curve"/>
      <point x="10" y="277" type="line"/>
      <point x="37" y="288"/>
      <point x="69" y="291"/>
      <point x="102" y="291" type="curve" smooth="yes"/>
      <point x="108" y="291"/>
      <point x="116" y="290"/>
      <point x="120" y="289" type="curve"/>
      <point x="120" y="423" type="line"/>
      <point x="117" y="425"/>
      <point x="114" y="425"/>
      <point x="110" y="425" type="curve" smooth="yes"/>
      <point x="107" y="425"/>
      <point x="103" y="425"/>
      <point x="100" y="423" type="curve"/>
      <point x="100" y="318" type="line"/>
      <point x="10" y="318" type="line"/>
      <point x="10" y="465" type="line"/>
      <point x="39" y="479"/>
      <point x="74" y="485"/>
      <point x="110" y="485" type="curve" smooth="yes"/>
      <point x="147" y="485"/>
      <point x="182" y="479"/>
      <point x="210" y="465" type="curve"/>
    </contour>
    <contour>
      <point x="120" y="52" type="curve"/>
      <point x="120" y="235" type="line"/>
      <point x="117" y="237"/>
      <point x="114" y="237"/>
      <point x="110" y="237" type="curve" smooth="yes"/>
      <point x="107" y="237"/>
      <point x="103" y="237"/>
      <point x="100" y="235" type="curve"/>
      <point x="100" y="52" type="line"/>
      <point x="103" y="51"/>
      <point x="107" y="50"/>
      <point x="110" y="50" type="curve" smooth="yes"/>
      <point x="114" y="50"/>
      <point x="117" y="51"/>
    </contour>
  </outline>
</glyph>
<glyph name="c" format="1">
  <advance width="220"/>
  <unicode hex="0063"/>
  <outline>
    <contour>
      <point x="210" y="15" type="line"/>
      <point x="182" y="1"/>
      <point x="147" y="-5"/>
      <point x="110" y="-5" type="curve" smooth="yes"/>
      <point x="74" y="-5"/>
      <point x="39" y="1"/>
      <point x="10" y="15" type="curve"/>
      <point x="10" y="465" type="line"/>
      <point x="39" y="479"/>
      <point x="74" y="485"/>
      <point x="110" y="485" type="curve" smooth="yes"/>
      <point x="147" y="485"/>
      <point x="182" y="479"/>
      <point x="210" y="465" type="curve"/>
      <point x="210" y="275" type="line"/>
      <point x="120" y="275" type="line"/>
      <point x="120" y="417" type="line"/>
      <point x="117" y="419"/>
      <point x="114" y="419"/>
      <point x="110" y="419" type="curve" smooth="yes"/>
      <point x="107" y="419"/>
      <point x="103" y="419"/>
      <point x="100" y="417" type="curve"/>
      <point x="100" y="63" type="line"/>
      <point x="103" y="61"/>
      <point x="107" y="61"/>
      <point x="110" y="61" type="curve" smooth="yes"/>
      <point x="114" y="61"/>
      <point x="117" y="61"/>
      <point x="120" y="63" type="curve"/>
      <point x="120" y="206" type="line"/>
      <point x="210" y="206" type="line"/>
    </contour>
  </outline>
</glyph>
<glyph name="e" format="1">
  <advance width="220"/>
  <unicode hex="0065"/>
  <outline>
    <contour>
      <point x="210" y="15" type="line"/>
      <point x="182" y="1"/>
      <point x="147" y="-5"/>
      <point x="110" y="-5" type="curve" smooth="yes"/>
      <point x="74" y="-5"/>
      <point x="39" y="1"/>
      <point x="10" y="15" type="curve"/>
      <point x="10" y="465" type="line"/>
      <point x="39" y="479"/>
      <point x="74" y="485"/>
      <point x="110" y="485" type="curve" smooth="yes"/>
      <point x="147" y="485"/>
      <point x="182" y="479"/>
      <point x="210" y="465" type="curve"/>
      <point x="210" y="216" type="line"/>
      <point x="100" y="216" type="line"/>
      <point x="100" y="57" type="line"/>
      <point x="103" y="55"/>
      <point x="107" y="55"/>
      <point x="110" y="55" type="curve" smooth="yes"/>
      <point x="114" y="55"/>
      <point x="117" y="55"/>
      <point x="120" y="57" type="curve"/>
      <point x="120" y="183" type="line"/>
      <point x="210" y="183" type="line"/>
    </contour>
    <contour>
      <point x="120" y="269" type="curve"/>
      <point x="120" y="426" type="line"/>
      <point x="117" y="428"/>
      <point x="114" y="428"/>
      <point x="110" y="428" type="curve" smooth="yes"/>
      <point x="107" y="428"/>
      <point x="103" y="428"/>
      <point x="100" y="426" type="curve"/>
      <point x="100" y="269" type="line"/>
      <point x="101" y="269"/>
      <point x="119" y="269"/>
    </contour>
  </outline>
</glyph>
<glyph name="f" format="1">
  <advance width="138"/>
  <unicode hex="0066"/>
  <outline>
    <contour>
      <point x="136" y="655" type="line"/>
      <point x="124" y="655" type="line" smooth="yes"/>
      <point x="117" y="655"/>
      <point x="108" y="654"/>
      <point x="102" y="649" type="curve"/>
      <point x="102" y="480" type="line"/>
      <point x="133" y="480" type="line"/>
      <point x="133" y="412" type="line"/>
      <point x="102" y="412" type="line"/>
      <point x="102" y="0" type="line"/>
      <point x="10" y="0" type="line"/>
      <point x="10" y="412" type="line"/>
      <point x="10" y="412" type="line"/>
      <point x="10" y="480" type="line"/>
      <point x="10" y="480" type="line"/>
      <point x="10" y="697" type="line"/>
      <point x="38" y="713"/>
      <point x="72" y="723"/>
      <point x="114" y="723" type="curve" smooth="yes"/>
      <point x="136" y="723" type="line"/>
    </contour>
  </outline>
</glyph>
<glyph name="g" format="1">
  <advance width="220"/>
  <unicode hex="0067"/>
  <outline>
    <contour>
      <point x="210" y="-160" type="line"/>
      <point x="182" y="-174"/>
      <point x="147" y="-180"/>
      <point x="110" y="-180" type="curve" smooth="yes"/>
      <point x="74" y="-180"/>
      <point x="39" y="-174"/>
      <point x="10" y="-160" type="curve"/>
      <point x="10" y="-30" type="line"/>
      <point x="100" y="-30" type="line"/>
      <point x="100" y="-120" type="line"/>
      <point x="103" y="-121"/>
      <point x="107" y="-122"/>
      <point x="110" y="-122" type="curve" smooth="yes"/>
      <point x="114" y="-122"/>
      <point x="117" y="-121"/>
      <point x="120" y="-120" type="curve"/>
      <point x="120" y="-1" type="line"/>
      <point x="116" y="-2"/>
      <point x="108" y="-3"/>
      <point x="102" y="-3" type="curve" smooth="yes"/>
      <point x="69" y="-3"/>
      <point x="37" y="1"/>
      <point x="10" y="11" type="curve"/>
      <point x="10" y="465" type="line"/>
      <point x="39" y="479"/>
      <point x="74" y="485"/>
      <point x="110" y="485" type="curve" smooth="yes"/>
      <point x="147" y="485"/>
      <point x="182" y="479"/>
      <point x="210" y="465" type="curve"/>
    </contour>
    <contour>
      <point x="120" y="62" type="curve"/>
      <point x="120" y="417" type="line"/>
      <point x="117" y="419"/>
      <point x="114" y="419"/>
      <point x="110" y="419" type="curve" smooth="yes"/>
      <point x="107" y="419"/>
      <point x="103" y="419"/>
      <point x="100" y="417" type="curve"/>
      <point x="100" y="62" type="line"/>
      <point x="103" y="61"/>
      <point x="107" y="60"/>
      <point x="110" y="60" type="curve" smooth="yes"/>
      <point x="114" y="60"/>
      <point x="117" y="61"/>
    </contour>
  </outline>
</glyph>
<glyph name="h" format="1">
  <advance width="220"/>
  <unicode hex="0068"/>
  <outline>
    <contour>
      <point x="210" y="0" type="line"/>
      <point x="120" y="0" type="line"/>
      <point x="120" y="412" type="line"/>
      <point x="117" y="413"/>
      <point x="114" y="414"/>
      <point x="110" y="414" type="curve" smooth="yes"/>
      <point x="107" y="414"/>
      <point x="103" y="413"/>
      <point x="100" y="412" type="curve"/>
      <point x="100" y="0" type="line"/>
      <point x="10" y="0" type="line"/>
      <point x="10" y="720" type="line"/>
      <point x="100" y="720" type="line"/>
      <point x="100" y="480" type="line"/>
      <point x="104" y="481"/>
      <point x="111" y="482"/>
      <point x="116" y="482" type="curve" smooth="yes"/>
      <point x="150" y="482"/>
      <point x="184" y="477"/>
      <point x="210" y="463" type="curve"/>
    </contour>
  </outline>
</glyph>
<glyph name="i" format="1">
  <advance width="112"/>
  <unicode hex="0069"/>
  <outline>
    <contour>
      <point x="102" y="550" type="line"/>
      <point x="10" y="550" type="line"/>
      <point x="10" y="674" type="line"/>
      <point x="102" y="674" type="line"/>
    </contour>
    <contour>
      <point x="102" y="0" type="line"/>
      <point x="10" y="0" type="line"/>
      <point x="10" y="480" type="line"/>
      <point x="102" y="480" type="line"/>
    </contour>
  </outline>
</glyph>
<glyph name="j" format="1">
  <advance width="112"/>
  <unicode hex="006A"/>
  <outline>
    <contour>
      <point x="102" y="550" type="line"/>
      <point x="10" y="550" type="line"/>
      <point x="10" y="674" type="line"/>
      <point x="102" y="674" type="line"/>
    </contour>
    <contour>
      <point x="102" y="-152" type="line"/>
      <point x="74" y="-168"/>
      <point x="40" y="-179"/>
      <point x="-2" y="-179" type="curve" smooth="yes"/>
      <point x="-27" y="-179" type="line"/>
      <point x="-27" y="-100" type="line"/>
      <point x="-12" y="-100" type="line" smooth="yes"/>
      <point x="-5" y="-100"/>
      <point x="4" y="-99"/>
      <point x="10" y="-94" type="curve"/>
      <point x="10" y="480" type="line"/>
      <point x="102" y="480" type="line"/>
    </contour>
  </outline>
</glyph>
<glyph name="k" format="1">
  <advance width="220"/>
  <unicode hex="006B"/>
  <outline>
    <contour>
      <point x="210" y="0" type="line"/>
      <point x="120" y="0" type="line"/>
      <point x="120" y="202" type="line"/>
      <point x="117" y="206"/>
      <point x="110" y="209"/>
      <point x="103" y="209" type="curve" smooth="yes"/>
      <point x="100" y="209" type="line"/>
      <point x="100" y="0" type="line"/>
      <point x="10" y="0" type="line"/>
      <point x="10" y="720" type="line"/>
      <point x="100" y="720" type="line"/>
      <point x="100" y="279" type="line"/>
      <point x="103" y="279" type="line" smooth="yes"/>
      <point x="110" y="279"/>
      <point x="117" y="282"/>
      <point x="120" y="286" type="curve"/>
      <point x="120" y="480" type="line"/>
      <point x="210" y="480" type="line"/>
      <point x="210" y="258" type="line"/>
      <point x="200" y="252"/>
      <point x="175" y="246"/>
      <point x="156" y="244" type="curve"/>
      <point x="175" y="242"/>
      <point x="200" y="236"/>
      <point x="210" y="230" type="curve"/>
    </contour>
  </outline>
</glyph>
<glyph name="l" format="1">
  <advance width="112"/>
  <unicode hex="006C"/>
  <outline>
    <contour>
      <point x="102" y="0" type="line"/>
      <point x="10" y="0" type="line"/>
      <point x="10" y="720" type="line"/>
      <point x="102" y="720" type="line"/>
    </contour>
  </outline>
</glyph>
<glyph name="m" format="1">
  <advance width="330"/>
  <unicode hex="006D"/>
  <outline>
    <contour>
      <point x="320" y="0" type="line"/>
      <point x="230" y="0" type="line"/>
      <point x="230" y="415" type="line"/>
      <point x="226" y="417"/>
      <point x="218" y="419"/>
      <point x="210" y="420" type="curve"/>
      <point x="210" y="0" type="line"/>
      <point x="120" y="0" type="line"/>
      <point x="120" y="420" type="line"/>
      <point x="112" y="419"/>
      <point x="104" y="417"/>
      <point x="100" y="415" type="curve"/>
      <point x="100" y="0" type="line"/>
      <point x="10" y="0" type="line"/>
      <point x="10" y="464" type="line"/>
      <point x="49" y="479"/>
      <point x="105" y="487"/>
      <point x="165" y="487" type="curve" smooth="yes"/>
      <point x="225" y="487"/>
      <point x="282" y="479"/>
      <point x="320" y="464" type="curve"/>
    </contour>
  </outline>
</glyph>
<glyph name="n" format="1">
  <advance width="220"/>
  <unicode hex="006E"/>
  <outline>
    <contour>
      <point x="210" y="0" type="line"/>
      <point x="120" y="0" type="line"/>
      <point x="120" y="414" type="line"/>
      <point x="117" y="416"/>
      <point x="114" y="416"/>
      <point x="110" y="416" type="curve" smooth="yes"/>
      <point x="107" y="416"/>
      <point x="103" y="416"/>
      <point x="100" y="414" type="curve"/>
      <point x="100" y="0" type="line"/>
      <point x="10" y="0" type="line"/>
      <point x="10" y="465" type="line"/>
      <point x="39" y="479"/>
      <point x="74" y="485"/>
      <point x="110" y="485" type="curve" smooth="yes"/>
      <point x="147" y="485"/>
      <point x="182" y="479"/>
      <point x="210" y="465" type="curve"/>
    </contour>
  </outline>
</glyph>
<glyph name="p" format="1">
  <advance width="220"/>
  <unicode hex="0070"/>
  <outline>
    <contour>
      <point x="210" y="17" type="line"/>
      <point x="184" y="3"/>
      <point x="151" y="-2"/>
      <point x="117" y="-2" type="curve" smooth="yes"/>
      <point x="112" y="-2"/>
      <point x="104" y="-1"/>
      <point x="100" y="0" type="curve"/>
      <point x="100" y="-175" type="line"/>
      <point x="10" y="-175" type="line"/>
      <point x="10" y="465" type="line"/>
      <point x="39" y="479"/>
      <point x="74" y="485"/>
      <point x="110" y="485" type="curve" smooth="yes"/>
      <point x="147" y="485"/>
      <point x="182" y="479"/>
      <point x="210" y="465" type="curve"/>
    </contour>
    <contour>
      <point x="120" y="65" type="curve"/>
      <point x="120" y="417" type="line"/>
      <point x="117" y="419"/>
      <point x="114" y="419"/>
      <point x="110" y="419" type="curve" smooth="yes"/>
      <point x="107" y="419"/>
      <point x="103" y="419"/>
      <point x="100" y="417" type="curve"/>
      <point x="100" y="65" type="line"/>
      <point x="103" y="64"/>
      <point x="107" y="63"/>
      <point x="110" y="63" type="curve" smooth="yes"/>
      <point x="114" y="63"/>
      <point x="117" y="64"/>
    </contour>
  </outline>
</glyph>
<glyph name="r" format="1">
  <advance width="146"/>
  <unicode hex="0072"/>
  <outline>
    <contour>
      <point x="142" y="413" type="line"/>
      <point x="124" y="413" type="line" smooth="yes"/>
      <point x="117" y="413"/>
      <point x="108" y="411"/>
      <point x="102" y="407" type="curve"/>
      <point x="102" y="0" type="line"/>
      <point x="10" y="0" type="line"/>
      <point x="10" y="456" type="line"/>
      <point x="38" y="472"/>
      <point x="72" y="483"/>
      <point x="114" y="483" type="curve" smooth="yes"/>
      <point x="142" y="483" type="line"/>
    </contour>
  </outline>
</glyph>
<glyph name="s" format="1">
  <advance width="220"/>
  <unicode hex="0073"/>
  <outline>
    <contour>
      <point x="210" y="15" type="line"/>
      <point x="182" y="1"/>
      <point x="147" y="-5"/>
      <point x="110" y="-5" type="curve" smooth="yes"/>
      <point x="74" y="-5"/>
      <point x="39" y="1"/>
      <point x="10" y="15" type="curve"/>
      <point x="10" y="185" type="line"/>
      <point x="100" y="185" type="line"/>
      <point x="100" y="57" type="line"/>
      <point x="103" y="55"/>
      <point x="107" y="55"/>
      <point x="110" y="55" type="curve" smooth="yes"/>
      <point x="114" y="55"/>
      <point x="117" y="55"/>
      <point x="120" y="57" type="curve"/>
      <point x="120" y="194" type="line"/>
      <point x="10" y="244" type="line"/>
      <point x="10" y="465" type="line"/>
      <point x="39" y="479"/>
      <point x="74" y="485"/>
      <point x="110" y="485" type="curve" smooth="yes"/>
      <point x="147" y="485"/>
      <point x="182" y="479"/>
      <point x="210" y="465" type="curve"/>
      <point x="210" y="297" type="line"/>
      <point x="120" y="297" type="line"/>
      <point x="120" y="423" type="line"/>
      <point x="117" y="425"/>
      <point x="114" y="425"/>
      <point x="110" y="425" type="curve" smooth="yes"/>
      <point x="107" y="425"/>
      <point x="103" y="425"/>
      <point x="100" y="423" type="curve"/>
      <point x="100" y="288" type="line"/>
      <point x="210" y="239" type="line"/>
    </contour>
  </outline>
</glyph>
<glyph name="t" format="1">
  <advance width="140"/>
  <unicode hex="0074"/>
  <outline>
    <contour>
      <point x="136" y="-4" type="line"/>
      <point x="114" y="-4" type="line" smooth="yes"/>
      <point x="72" y="-4"/>
      <point x="38" y="6"/>
      <point x="10" y="23" type="curve"/>
      <point x="10" y="412" type="line"/>
      <point x="10" y="412" type="line"/>
      <point x="10" y="480" type="line"/>
      <point x="10" y="480" type="line"/>
      <point x="10" y="634" type="line"/>
      <point x="102" y="634" type="line"/>
      <point x="102" y="480" type="line"/>
      <point x="133" y="480" type="line"/>
      <point x="133" y="412" type="line"/>
      <point x="102" y="412" type="line"/>
      <point x="102" y="70" type="line"/>
      <point x="108" y="66"/>
      <point x="117" y="64"/>
      <point x="124" y="64" type="curve" smooth="yes"/>
      <point x="136" y="64" type="line"/>
    </contour>
  </outline>
</glyph>
<glyph name="u" format="1">
  <advance width="220"/>
  <unicode hex="0075"/>
  <outline>
    <contour>
      <point x="210" y="15" type="line"/>
      <point x="182" y="1"/>
      <point x="147" y="-5"/>
      <point x="110" y="-5" type="curve" smooth="yes"/>
      <point x="74" y="-5"/>
      <point x="39" y="1"/>
      <point x="10" y="15" type="curve"/>
      <point x="10" y="480" type="line"/>
      <point x="100" y="480" type="line"/>
      <point x="100" y="66" type="line"/>
      <point x="103" y="64"/>
      <point x="107" y="64"/>
      <point x="110" y="64" type="curve" smooth="yes"/>
      <point x="114" y="64"/>
      <point x="117" y="64"/>
      <point x="120" y="66" type="curve"/>
      <point x="120" y="480" type="line"/>
      <point x="210" y="480" type="line"/>
    </contour>
  </outline>
</glyph>
<glyph name="v" format="1">
  <advance width="220"/>
  <unicode hex="0076"/>
  <outline>
    <contour>
      <point x="210" y="234" type="line" smooth="yes"/>
      <point x="210" y="122"/>
      <point x="193" y="60"/>
      <point x="159" y="0" type="curve"/>
      <point x="62" y="0" type="line"/>
      <point x="27" y="60"/>
      <point x="10" y="122"/>
      <point x="10" y="234" type="curve" smooth="yes"/>
      <point x="10" y="480" type="line"/>
      <point x="100" y="480" type="line"/>
      <point x="100" y="220" type="line" smooth="yes"/>
      <point x="100" y="155"/>
      <point x="104" y="115"/>
      <point x="110" y="81" type="curve"/>
      <point x="116" y="115"/>
      <point x="120" y="155"/>
      <point x="120" y="220" type="curve" smooth="yes"/>
      <point x="120" y="480" type="line"/>
      <point x="210" y="480" type="line"/>
    </contour>
  </outline>
</glyph>
<glyph name="w" format="1">
  <advance width="330"/>
  <unicode hex="0077"/>
  <outline>
    <contour>
      <point x="320" y="16" type="line"/>
      <point x="282" y="1"/>
      <point x="225" y="-7"/>
      <point x="165" y="-7" type="curve" smooth="yes"/>
      <point x="105" y="-7"/>
      <point x="49" y="1"/>
      <point x="10" y="16" type="curve"/>
      <point x="10" y="480" type="line"/>
      <point x="100" y="480" type="line"/>
      <point x="100" y="65" type="line"/>
      <point x="104" y="63"/>
      <point x="112" y="61"/>
      <point x="120" y="60" type="curve"/>
      <point x="120" y="480" type="line"/>
      <point x="210" y="480" type="line"/>
      <point x="210" y="60" type="line"/>
      <point x="218" y="61"/>
      <point x="226" y="63"/>
      <point x="230" y="65" type="curve"/>
      <point x="230" y="480" type="line"/>
      <point x="320" y="480" type="line"/>
    </contour>
  </outline>
</glyph>
<glyph name="x" format="1">
  <advance width="220"/>
  <unicode hex="0078"/>
  <outline>
    <contour>
      <point x="210" y="0" type="line"/>
      <point x="120" y="0" type="line"/>
      <point x="120" y="206" type="line"/>
      <point x="117" y="207"/>
      <point x="114" y="208"/>
      <point x="110" y="208" type="curve" smooth="yes"/>
      <point x="107" y="208"/>
      <point x="103" y="207"/>
      <point x="100" y="206" type="curve"/>
      <point x="100" y="0" type="line"/>
      <point x="10" y="0" type="line"/>
      <point x="10" y="230" type="line"/>
      <point x="20" y="236"/>
      <point x="45" y="242"/>
      <point x="64" y="244" type="curve"/>
      <point x="45" y="246"/>
      <point x="20" y="252"/>
      <point x="10" y="258" type="curve"/>
      <point x="10" y="480" type="line"/>
      <point x="101" y="480" type="line"/>
      <point x="101" y="283" type="line"/>
      <point x="104" y="281"/>
      <point x="107" y="281"/>
      <point x="110" y="281" type="curve" smooth="yes"/>
      <point x="114" y="281"/>
      <point x="117" y="281"/>
      <point x="120" y="283" type="curve"/>
      <point x="120" y="480" type="line"/>
      <point x="210" y="480" type="line"/>
      <point x="210" y="258" type="line"/>
      <point x="200" y="252"/>
      <point x="175" y="246"/>
      <point x="156" y="244" type="curve"/>
      <point x="175" y="242"/>
      <point x="200" y="236"/>
      <point x="210" y="230" type="curve"/>
    </contour>
  </outline>
</glyph>
<glyph name="y" format="1">
  <advance width="220"/>
  <unicode hex="0079"/>
  <outline>
    <contour>
      <point x="210" y="-163" type="line"/>
      <point x="182" y="-177"/>
      <point x="147" y="-183"/>
      <point x="110" y="-183" type="curve" smooth="yes"/>
      <point x="74" y="-183"/>
      <point x="39" y="-177"/>
      <point x="10" y="-163" type="curve"/>
      <point x="10" y="-30" type="line"/>
      <point x="100" y="-30" type="line"/>
      <point x="100" y="-122" type="line"/>
      <point x="103" y="-124"/>
      <point x="107" y="-124"/>
      <point x="110" y="-124" type="curve" smooth="yes"/>
      <point x="114" y="-124"/>
      <point x="117" y="-124"/>
      <point x="120" y="-122" type="curve"/>
      <point x="120" y="-1" type="line"/>
      <point x="116" y="-2"/>
      <point x="108" y="-3"/>
      <point x="102" y="-3" type="curve" smooth="yes"/>
      <point x="69" y="-3"/>
      <point x="37" y="1"/>
      <point x="10" y="11" type="curve"/>
      <point x="10" y="480" type="line"/>
      <point x="100" y="480" type="line"/>
      <point x="100" y="65" type="line"/>
      <point x="103" y="64"/>
      <point x="107" y="63"/>
      <point x="110" y="63" type="curve" smooth="yes"/>
      <point x="114" y="63"/>
      <point x="117" y="64"/>
      <point x="120" y="65" type="curve"/>
      <point x="120" y="480" type="line"/>
      <point x="210" y="480" type="line"/>
    </contour>
  </outline>
</glyph>
<glyph name="z" format="1">
  <advance width="179"/>
  <unicode hex="007A"/>
  <outline>
    <contour>
      <point x="175" y="0" type="line"/>
      <point x="4" y="0" type="line"/>
      <point x="4" y="67" type="line"/>
      <point x="67" y="409" type="line"/>
      <point x="5" y="409" type="line"/>
      <point x="5" y="480" type="line"/>
      <point x="174" y="480" type="line"/>
      <point x="174" y="413" type="line"/>
      <point x="113" y="72" type="line"/>
      <point x="175" y="72" type="line"/>
    </contour>
  </outline>
</glyph>
<glyph name="braceleft" format="1">
  <advance width="165"/>
  <unicode hex="007B"/>
  <outline>
    <contour>
      <point x="158" y="-1" type="line"/>
      <point x="97" y="-1"/>
      <point x="67" y="6"/>
      <point x="31" y="27" type="curve"/>
      <point x="31" y="329" type="line"/>
      <point x="26" y="333"/>
      <point x="14" y="336"/>
      <point x="3" y="336" type="curve"/>
      <point x="3" y="408" type="line"/>
      <point x="15" y="408"/>
      <point x="25" y="411"/>
      <point x="31" y="414" type="curve"/>
      <point x="31" y="693" type="line"/>
      <point x="67" y="714"/>
      <point x="97" y="721"/>
      <point x="158" y="721" type="curve"/>
      <point x="158" y="635" type="line"/>
      <point x="146" y="635"/>
      <point x="134" y="634"/>
      <point x="126" y="629" type="curve"/>
      <point x="126" y="386" type="line"/>
      <point x="117" y="380"/>
      <point x="95" y="375"/>
      <point x="78" y="373" type="curve"/>
      <point x="95" y="370"/>
      <point x="117" y="365"/>
      <point x="126" y="359" type="curve"/>
      <point x="126" y="91" type="line"/>
      <point x="134" y="86"/>
      <point x="146" y="85"/>
      <point x="158" y="85" type="curve"/>
    </contour>
  </outline>
</glyph>
<glyph name="bar" format="1">
  <advance width="112"/>
  <unicode hex="007C"/>
  <outline>
    <contour>
      <point x="101" y="-75" type="line"/>
      <point x="10" y="-75" type="line"/>
      <point x="10" y="795" type="line"/>
      <point x="101" y="795" type="line"/>
    </contour>
  </outline>
</glyph>
<glyph name="braceright" format="1">
  <advance width="165"/>
  <unicode hex="007D"/>
  <outline>
    <contour>
      <point x="162" y="336" type="line"/>
      <point x="151" y="336"/>
      <point x="139" y="333"/>
      <point x="134" y="329" type="curve"/>
      <point x="134" y="27" type="line"/>
      <point x="98" y="6"/>
      <point x="68" y="-1"/>
      <point x="6" y="-1" type="curve"/>
      <point x="6" y="85" type="line"/>
      <point x="18" y="85"/>
      <point x="30" y="86"/>
      <point x="39" y="91" type="curve"/>
      <point x="39" y="359" type="line"/>
      <point x="48" y="365"/>
      <point x="70" y="370"/>
      <point x="87" y="373" type="curve"/>
      <point x="70" y="375"/>
      <point x="48" y="380"/>
      <point x="39" y="386" type="curve"/>
      <point x="39" y="629" type="line"/>
      <point x="30" y="634"/>
      <point x="18" y="635"/>
      <point x="6" y="635" type="curve"/>
      <point x="6" y="721" type="line"/>
      <point x="68" y="721"/>
      <point x="98" y="714"/>
      <point x="134" y="693" type="curve"/>
      <point x="134" y="414" type="line"/>
      <point x="139" y="411"/>
      <point x="149" y="408"/>
      <point x="162" y="408" type="curve"/>
    </contour>
  </outline>
</glyph>
<glyph name="asciitilde" format="1">
  <advance width="239"/>
  <unicode hex="007E"/>
  <outline>
    <contour>
      <point x="229" y="292" type="line"/>
      <point x="145" y="292" type="line"/>
      <point x="93" y="346" type="line"/>
      <point x="93" y="292" type="line"/>
      <point x="10" y="292" type="line"/>
      <point x="10" y="452" type="line"/>
      <point x="94" y="452" type="line"/>
      <point x="146" y="398" type="line"/>
      <point x="146" y="452" type="line"/>
      <point x="229" y="452" type="line"/>
    </contour>
  </outline>
</glyph>
<glyph name="exclamdown" format="1">
  <advance width="115"/>
  <unicode hex="00A1"/>
  <outline>
    <contour>
      <point x="105" y="594" type="line"/>
      <point x="10" y="594" type="line"/>
      <point x="10" y="720" type="line"/>
      <point x="105" y="720" type="line"/>
    </contour>
    <contour>
      <point x="105" y="0" type="line"/>
      <point x="10" y="0" type="line"/>
      <point x="10" y="567" type="line"/>
      <point x="105" y="567" type="line"/>
    </contour>
  </outline>
</glyph>
<glyph name="cent" format="1">
  <advance width="220"/>
  <unicode hex="00A2"/>
  <outline>
    <contour>
      <point x="210" y="135" type="line"/>
      <point x="195" y="127"/>
      <point x="177" y="122"/>
      <point x="158" y="119" type="curve"/>
      <point x="158" y="0" type="line"/>
      <point x="63" y="0" type="line"/>
      <point x="63" y="119" type="line"/>
      <point x="44" y="122"/>
      <point x="25" y="127"/>
      <point x="10" y="135" type="curve"/>
      <point x="10" y="586" type="line"/>
      <point x="25" y="594"/>
      <point x="44" y="599"/>
      <point x="63" y="602" type="curve"/>
      <point x="63" y="720" type="line"/>
      <point x="158" y="720" type="line"/>
      <point x="158" y="602" type="line"/>
      <point x="177" y="599"/>
      <point x="195" y="594"/>
      <point x="210" y="586" type="curve"/>
      <point x="210" y="395" type="line"/>
      <point x="120" y="395" type="line"/>
      <point x="120" y="538" type="line"/>
      <point x="117" y="539"/>
      <point x="114" y="540"/>
      <point x="110" y="540" type="curve" smooth="yes"/>
      <point x="107" y="540"/>
      <point x="103" y="539"/>
      <point x="100" y="538" type="curve"/>
      <point x="100" y="183" type="line"/>
      <point x="103" y="182"/>
      <point x="107" y="181"/>
      <point x="110" y="181" type="curve" smooth="yes"/>
      <point x="114" y="181"/>
      <point x="117" y="182"/>
      <point x="120" y="183" type="curve"/>
      <point x="120" y="326" type="line"/>
      <point x="210" y="326" type="line"/>
    </contour>
  </outline>
</glyph>
<glyph name="sterling" format="1">
  <advance width="234"/>
  <unicode hex="00A3"/>
  <outline>
    <contour>
      <point x="225" y="0" type="line"/>
      <point x="10" y="0" type="line"/>
      <point x="10" y="84" type="line"/>
      <point x="10" y="84" type="line"/>
      <point x="10" y="328" type="line"/>
      <point x="10" y="328" type="line"/>
      <point x="10" y="408" type="line"/>
      <point x="10" y="408" type="line"/>
      <point x="10" y="703" type="line"/>
      <point x="43" y="719"/>
      <point x="81" y="725"/>
      <point x="118" y="725" type="curve" smooth="yes"/>
      <point x="154" y="725"/>
      <point x="193" y="719"/>
      <point x="225" y="703" type="curve"/>
      <point x="225" y="440" type="line"/>
      <point x="128" y="440" type="line"/>
      <point x="128" y="651" type="line"/>
      <point x="125" y="653"/>
      <point x="121" y="653"/>
      <point x="118" y="653" type="curve" smooth="yes"/>
      <point x="114" y="653"/>
      <point x="111" y="653"/>
      <point x="108" y="651" type="curve"/>
      <point x="108" y="408" type="line"/>
      <point x="209" y="408" type="line"/>
      <point x="209" y="328" type="line"/>
      <point x="108" y="328" type="line"/>
      <point x="108" y="84" type="line"/>
      <point x="225" y="84" type="line"/>
    </contour>
  </outline>
</glyph>
<glyph name="yen" format="1">
  <advance width="235"/>
  <unicode hex="00A5"/>
  <outline>
    <contour>
      <point x="225" y="283" type="line"/>
      <point x="207" y="274"/>
      <point x="186" y="268"/>
      <point x="166" y="265" type="curve"/>
      <point x="166" y="188" type="line"/>
      <point x="214" y="188" type="line"/>
      <point x="214" y="101" type="line"/>
      <point x="166" y="101" type="line"/>
      <point x="166" y="0" type="line"/>
      <point x="70" y="0" type="line"/>
      <point x="70" y="101" type="line"/>
      <point x="22" y="101" type="line"/>
      <point x="22" y="188" type="line"/>
      <point x="70" y="188" type="line"/>
      <point x="70" y="265" type="line"/>
      <point x="50" y="268"/>
      <point x="29" y="274"/>
      <point x="10" y="283" type="curve"/>
      <point x="10" y="720" type="line"/>
      <point x="108" y="720" type="line"/>
      <point x="108" y="335" type="line"/>
      <point x="111" y="334"/>
      <point x="114" y="334"/>
      <point x="118" y="334" type="curve" smooth="yes"/>
      <point x="121" y="334"/>
      <point x="125" y="334"/>
      <point x="128" y="335" type="curve"/>
      <point x="128" y="720" type="line"/>
      <point x="225" y="720" type="line"/>
    </contour>
  </outline>
</glyph>
<glyph name="section" format="1">
  <advance width="235"/>
  <unicode hex="00A7"/>
  <outline>
    <contour>
      <point x="225" y="-158" type="line"/>
      <point x="193" y="-174"/>
      <point x="154" y="-180"/>
      <point x="118" y="-180" type="curve" smooth="yes"/>
      <point x="81" y="-180"/>
      <point x="43" y="-174"/>
      <point x="10" y="-158" type="curve"/>
      <point x="10" y="74" type="line"/>
      <point x="108" y="74" type="line"/>
      <point x="108" y="-106" type="line"/>
      <point x="111" y="-108"/>
      <point x="114" y="-108"/>
      <point x="118" y="-108" type="curve" smooth="yes"/>
      <point x="121" y="-108"/>
      <point x="125" y="-108"/>
      <point x="128" y="-106" type="curve"/>
      <point x="128" y="66" type="line"/>
      <point x="114" y="97" type="line"/>
      <point x="113" y="97"/>
      <point x="113" y="97"/>
      <point x="112" y="97" type="curve" smooth="yes"/>
      <point x="77" y="98"/>
      <point x="41" y="103"/>
      <point x="10" y="114" type="curve"/>
      <point x="10" y="427" type="line"/>
      <point x="17" y="431"/>
      <point x="24" y="435"/>
      <point x="32" y="437" type="curve"/>
      <point x="10" y="461" type="line"/>
      <point x="10" y="703" type="line"/>
      <point x="43" y="719"/>
      <point x="81" y="725"/>
      <point x="118" y="725" type="curve" smooth="yes"/>
      <point x="154" y="725"/>
      <point x="193" y="719"/>
      <point x="225" y="703" type="curve"/>
      <point x="225" y="471" type="line"/>
      <point x="128" y="471" type="line"/>
      <point x="128" y="651" type="line"/>
      <point x="125" y="653"/>
      <point x="121" y="653"/>
      <point x="118" y="653" type="curve" smooth="yes"/>
      <point x="114" y="653"/>
      <point x="111" y="653"/>
      <point x="108" y="651" type="curve"/>
      <point x="108" y="479" type="line"/>
      <point x="121" y="448" type="line"/>
      <point x="122" y="448"/>
      <point x="123" y="448"/>
      <point x="124" y="448" type="curve" smooth="yes"/>
      <point x="158" y="447"/>
      <point x="194" y="442"/>
      <point x="225" y="431" type="curve"/>
      <point x="225" y="118" type="line"/>
      <point x="218" y="114"/>
      <point x="211" y="110"/>
      <point x="203" y="108" type="curve"/>
      <point x="225" y="84" type="line"/>
    </contour>
    <contour>
      <point x="128" y="170" type="curve"/>
      <point x="128" y="375" type="line"/>
      <point x="125" y="377"/>
      <point x="121" y="377"/>
      <point x="118" y="377" type="curve" smooth="yes"/>
      <point x="114" y="377"/>
      <point x="111" y="377"/>
      <point x="108" y="375" type="curve"/>
      <point x="108" y="170" type="line"/>
      <point x="111" y="168"/>
      <point x="114" y="168"/>
      <point x="118" y="168" type="curve" smooth="yes"/>
      <point x="121" y="168"/>
      <point x="125" y="168"/>
    </contour>
  </outline>
</glyph>
<glyph name="dieresis" format="1">
  <advance width="220"/>
  <unicode hex="00A8"/>
  <outline>
    <contour>
      <point x="210" y="502" type="line"/>
      <point x="122" y="502" type="line"/>
      <point x="122" y="645" type="line"/>
      <point x="210" y="645" type="line"/>
    </contour>
    <contour>
      <point x="99" y="502" type="line"/>
      <point x="10" y="502" type="line"/>
      <point x="10" y="645" type="line"/>
      <point x="99" y="645" type="line"/>
    </contour>
  </outline>
</glyph>
<glyph name="copyright" format="1">
  <advance width="349"/>
  <unicode hex="00A9"/>
  <outline>
    <contour>
      <point x="339" y="31" type="line"/>
      <point x="291" y="4"/>
      <point x="231" y="-5"/>
      <point x="175" y="-5" type="curve" smooth="yes"/>
      <point x="119" y="-5"/>
      <point x="58" y="4"/>
      <point x="10" y="31" type="curve"/>
      <point x="10" y="689" type="line"/>
      <point x="58" y="716"/>
      <point x="119" y="725"/>
      <point x="175" y="725" type="curve" smooth="yes"/>
      <point x="231" y="725"/>
      <point x="291" y="716"/>
      <point x="339" y="689" type="curve"/>
    </contour>
    <contour>
      <point x="281" y="71" type="curve"/>
      <point x="281" y="649" type="line"/>
      <point x="248" y="664"/>
      <point x="208" y="669"/>
      <point x="175" y="669" type="curve" smooth="yes"/>
      <point x="141" y="669"/>
      <point x="102" y="664"/>
      <point x="69" y="649" type="curve"/>
      <point x="69" y="71" type="line"/>
      <point x="102" y="56"/>
      <point x="141" y="51"/>
      <point x="175" y="51" type="curve" smooth="yes"/>
      <point x="208" y="51"/>
      <point x="248" y="56"/>
    </contour>
    <contour>
      <point x="258" y="89" type="line"/>
      <point x="233" y="77"/>
      <point x="203" y="73"/>
      <point x="175" y="73" type="curve" smooth="yes"/>
      <point x="147" y="73"/>
      <point x="117" y="77"/>
      <point x="91" y="89" type="curve"/>
      <point x="91" y="631" type="line"/>
      <point x="117" y="643"/>
      <point x="147" y="647"/>
      <point x="175" y="647" type="curve" smooth="yes"/>
      <point x="203" y="647"/>
      <point x="233" y="643"/>
      <point x="258" y="631" type="curve"/>
      <point x="258" y="412" type="line"/>
      <point x="185" y="412" type="line"/>
      <point x="185" y="590" type="line"/>
      <point x="182" y="592"/>
      <point x="178" y="592"/>
      <point x="175" y="592" type="curve" smooth="yes"/>
      <point x="172" y="592"/>
      <point x="168" y="592"/>
      <point x="165" y="590" type="curve"/>
      <point x="165" y="130" type="line"/>
      <point x="168" y="128"/>
      <point x="172" y="128"/>
      <point x="175" y="128" type="curve" smooth="yes"/>
      <point x="178" y="128"/>
      <point x="182" y="128"/>
      <point x="185" y="130" type="curve"/>
      <point x="185" y="309" type="line"/>
      <point x="258" y="309" type="line"/>
    </contour>
  </outline>
</glyph>
<glyph name="ordfeminine" format="1">
  <advance width="176"/>
  <unicode hex="00AA"/>
  <outline>
    <contour>
      <point x="166" y="361" type="line"/>
      <point x="144" y="349"/>
      <point x="117" y="344"/>
      <point x="88" y="344" type="curve" smooth="yes"/>
      <point x="60" y="344"/>
      <point x="32" y="349"/>
      <point x="10" y="361" type="curve"/>
      <point x="10" y="551" type="line"/>
      <point x="31" y="561"/>
      <point x="55" y="564"/>
      <point x="81" y="564" type="curve" smooth="yes"/>
      <point x="87" y="564"/>
      <point x="95" y="563"/>
      <point x="99" y="561" type="curve"/>
      <point x="99" y="672" type="line"/>
      <point x="96" y="674"/>
      <point x="92" y="674"/>
      <point x="88" y="674" type="curve" smooth="yes"/>
      <point x="85" y="674"/>
      <point x="81" y="674"/>
      <point x="78" y="672" type="curve"/>
      <point x="78" y="590" type="line"/>
      <point x="10" y="590" type="line"/>
      <point x="10" y="707" type="line"/>
      <point x="32" y="719"/>
      <point x="60" y="724"/>
      <point x="88" y="724" type="curve" smooth="yes"/>
      <point x="117" y="724"/>
      <point x="144" y="719"/>
      <point x="166" y="707" type="curve"/>
    </contour>
    <contour>
      <point x="99" y="392" type="curve"/>
      <point x="99" y="516" type="line"/>
      <point x="96" y="518"/>
      <point x="92" y="518"/>
      <point x="88" y="518" type="curve" smooth="yes"/>
      <point x="85" y="518"/>
      <point x="81" y="518"/>
      <point x="78" y="516" type="curve"/>
      <point x="78" y="392" type="line"/>
      <point x="81" y="391"/>
      <point x="85" y="390"/>
      <point x="88" y="390" type="curve" smooth="yes"/>
      <point x="92" y="390"/>
      <point x="96" y="391"/>
    </contour>
  </outline>
</glyph>
<glyph name="guillemotleft" format="1">
  <advance width="243"/>
  <unicode hex="00AB"/>
  <outline>
    <contour>
      <point x="238" y="35" type="line"/>
      <point x="120" y="186" type="line"/>
      <point x="120" y="295" type="line"/>
      <point x="238" y="445" type="line"/>
      <point x="238" y="314" type="line"/>
      <point x="183" y="240" type="line"/>
      <point x="238" y="167" type="line"/>
    </contour>
    <contour>
      <point x="121" y="35" type="line"/>
      <point x="3" y="186" type="line"/>
      <point x="3" y="295" type="line"/>
      <point x="121" y="445" type="line"/>
      <point x="121" y="314" type="line"/>
      <point x="66" y="240" type="line"/>
      <point x="121" y="167" type="line"/>
    </contour>
  </outline>
</glyph>
<glyph name="macron" format="1">
  <advance width="220"/>
  <unicode hex="00AF"/>
  <unicode hex="02C9"/>
  <outline>
    <contour>
      <point x="210" y="502" type="line"/>
      <point x="10" y="502" type="line"/>
      <point x="10" y="576" type="line"/>
      <point x="210" y="576" type="line"/>
    </contour>
  </outline>
</glyph>
<glyph name="degree" format="1">
  <advance width="193"/>
  <unicode hex="00B0"/>
  <outline>
    <contour>
      <point x="183" y="352" type="line"/>
      <point x="154" y="339"/>
      <point x="125" y="334"/>
      <point x="96" y="334" type="curve" smooth="yes"/>
      <point x="68" y="334"/>
      <point x="39" y="339"/>
      <point x="10" y="352" type="curve"/>
      <point x="10" y="707" type="line"/>
      <point x="39" y="721"/>
      <point x="68" y="725"/>
      <point x="96" y="725" type="curve" smooth="yes"/>
      <point x="125" y="725"/>
      <point x="154" y="721"/>
      <point x="183" y="707" type="curve"/>
    </contour>
    <contour>
      <point x="106" y="394" type="curve"/>
      <point x="106" y="664" type="line"/>
      <point x="103" y="666"/>
      <point x="100" y="666"/>
      <point x="96" y="666" type="curve" smooth="yes"/>
      <point x="93" y="666"/>
      <point x="90" y="666"/>
      <point x="86" y="664" type="curve"/>
      <point x="86" y="394" type="line"/>
      <point x="90" y="392"/>
      <point x="93" y="392"/>
      <point x="96" y="392" type="curve" smooth="yes"/>
      <point x="100" y="392"/>
      <point x="103" y="392"/>
    </contour>
  </outline>
</glyph>
<glyph name="paragraph" format="1">
  <advance width="320"/>
  <unicode hex="00B6"/>
  <outline>
    <contour>
      <point x="310" y="0" type="line"/>
      <point x="226" y="0" type="line"/>
      <point x="226" y="654" type="line"/>
      <point x="211" y="654" type="line"/>
      <point x="211" y="0" type="line"/>
      <point x="127" y="0" type="line"/>
      <point x="127" y="291" type="line"/>
      <point x="122" y="291" type="line" smooth="yes"/>
      <point x="80" y="291"/>
      <point x="40" y="300"/>
      <point x="9" y="319" type="curve"/>
      <point x="9" y="692" type="line"/>
      <point x="40" y="711"/>
      <point x="80" y="720"/>
      <point x="122" y="720" type="curve" smooth="yes"/>
      <point x="310" y="720" type="line"/>
    </contour>
    <contour>
      <point x="127" y="356" type="curve"/>
      <point x="127" y="654" type="line"/>
      <point x="126" y="654"/>
      <point x="124" y="654"/>
      <point x="123" y="654" type="curve" smooth="yes"/>
      <point x="117" y="654"/>
      <point x="110" y="651"/>
      <point x="107" y="648" type="curve"/>
      <point x="107" y="363" type="line"/>
      <point x="110" y="359"/>
      <point x="117" y="356"/>
      <point x="123" y="356" type="curve" smooth="yes"/>
      <point x="124" y="356"/>
      <point x="126" y="356"/>
    </contour>
  </outline>
</glyph>
<glyph name="periodcentered" format="1">
  <advance width="112"/>
  <unicode hex="00B7"/>
  <unicode hex="2219"/>
  <outline>
    <contour>
      <point x="102" y="233" type="line"/>
      <point x="10" y="233" type="line"/>
      <point x="10" y="359" type="line"/>
      <point x="102" y="359" type="line"/>
    </contour>
  </outline>
</glyph>
<glyph name="cedilla" format="1">
  <advance width="220"/>
  <unicode hex="00B8"/>
  <outline>
    <contour>
      <point x="153" y="-78" type="line"/>
      <point x="125" y="-94"/>
      <point x="95" y="-101"/>
      <point x="58" y="-101" type="curve" smooth="yes"/>
      <point x="41" y="-101" type="line"/>
      <point x="41" y="-32" type="line"/>
      <point x="50" y="-32" type="line" smooth="yes"/>
      <point x="56" y="-32"/>
      <point x="64" y="-31"/>
      <point x="68" y="-27" type="curve"/>
      <point x="68" y="10" type="line"/>
      <point x="153" y="10" type="line"/>
    </contour>
  </outline>
</glyph>
<glyph name="ordmasculine" format="1">
  <advance width="176"/>
  <unicode hex="00BA"/>
  <outline>
    <contour>
      <point x="166" y="361" type="line"/>
      <point x="144" y="349"/>
      <point x="117" y="344"/>
      <point x="88" y="344" type="curve" smooth="yes"/>
      <point x="60" y="344"/>
      <point x="32" y="349"/>
      <point x="10" y="361" type="curve"/>
      <point x="10" y="707" type="line"/>
      <point x="32" y="719"/>
      <point x="60" y="724"/>
      <point x="88" y="724" type="curve" smooth="yes"/>
      <point x="117" y="724"/>
      <point x="144" y="719"/>
      <point x="166" y="707" type="curve"/>
    </contour>
    <contour>
      <point x="98" y="400" type="curve"/>
      <point x="98" y="668" type="line"/>
      <point x="96" y="670"/>
      <point x="92" y="670"/>
      <point x="88" y="670" type="curve" smooth="yes"/>
      <point x="85" y="670"/>
      <point x="81" y="670"/>
      <point x="78" y="668" type="curve"/>
      <point x="78" y="400" type="line"/>
      <point x="81" y="398"/>
      <point x="85" y="398"/>
      <point x="88" y="398" type="curve" smooth="yes"/>
      <point x="92" y="398"/>
      <point x="96" y="398"/>
    </contour>
  </outline>
</glyph>
<glyph name="guillemotright" format="1">
  <advance width="243"/>
  <unicode hex="00BB"/>
  <outline>
    <contour>
      <point x="240" y="186" type="line"/>
      <point x="123" y="35" type="line"/>
      <point x="123" y="167" type="line"/>
      <point x="177" y="240" type="line"/>
      <point x="123" y="314" type="line"/>
      <point x="123" y="445" type="line"/>
      <point x="240" y="295" type="line"/>
    </contour>
    <contour>
      <point x="123" y="186" type="line"/>
      <point x="5" y="35" type="line"/>
      <point x="5" y="167" type="line"/>
      <point x="60" y="240" type="line"/>
      <point x="5" y="314" type="line"/>
      <point x="5" y="445" type="line"/>
      <point x="123" y="295" type="line"/>
    </contour>
  </outline>
</glyph>
<glyph name="questiondown" format="1">
  <advance width="233"/>
  <unicode hex="00BF"/>
  <outline>
    <contour>
      <point x="166" y="594" type="line"/>
      <point x="71" y="594" type="line"/>
      <point x="71" y="720" type="line"/>
      <point x="166" y="720" type="line"/>
    </contour>
    <contour>
      <point x="224" y="17" type="line"/>
      <point x="192" y="1"/>
      <point x="153" y="-5"/>
      <point x="117" y="-5" type="curve" smooth="yes"/>
      <point x="80" y="-5"/>
      <point x="42" y="2"/>
      <point x="9" y="17" type="curve"/>
      <point x="9" y="349" type="line"/>
      <point x="71" y="422" type="line"/>
      <point x="71" y="567" type="line"/>
      <point x="166" y="567" type="line"/>
      <point x="166" y="364" type="line"/>
      <point x="107" y="292" type="line"/>
      <point x="107" y="69" type="line"/>
      <point x="110" y="67"/>
      <point x="113" y="67"/>
      <point x="117" y="67" type="curve" smooth="yes"/>
      <point x="120" y="67"/>
      <point x="124" y="67"/>
      <point x="127" y="69" type="curve"/>
      <point x="127" y="285" type="line"/>
      <point x="224" y="285" type="line"/>
    </contour>
  </outline>
</glyph>
<glyph name="Aring" format="1">
  <advance width="235"/>
  <unicode hex="00C5"/>
  <outline>
    <contour>
      <point x="225" y="0" type="line"/>
      <point x="128" y="0" type="line"/>
      <point x="128" y="304" type="line"/>
      <point x="108" y="304" type="line"/>
      <point x="108" y="0" type="line"/>
      <point x="10" y="0" type="line"/>
      <point x="10" y="703" type="line"/>
      <point x="43" y="719"/>
      <point x="81" y="725"/>
      <point x="118" y="725" type="curve" smooth="yes"/>
      <point x="154" y="725"/>
      <point x="193" y="719"/>
      <point x="225" y="703" type="curve"/>
    </contour>
    <contour>
      <point x="128" y="375" type="line"/>
      <point x="128" y="654" type="line"/>
      <point x="125" y="656"/>
      <point x="121" y="656"/>
      <point x="118" y="656" type="curve" smooth="yes"/>
      <point x="114" y="656"/>
      <point x="111" y="656"/>
      <point x="108" y="654" type="curve"/>
      <point x="108" y="375" type="line"/>
    </contour>
    <contour>
      <point x="218" y="759" type="line"/>
      <point x="190" y="745"/>
      <point x="155" y="739"/>
      <point x="118" y="739" type="curve" smooth="yes"/>
      <point x="82" y="739"/>
      <point x="47" y="745"/>
      <point x="18" y="759" type="curve"/>
      <point x="18" y="862" type="line"/>
      <point x="47" y="877"/>
      <point x="82" y="882"/>
      <point x="118" y="882" type="curve" smooth="yes"/>
      <point x="155" y="882"/>
      <point x="190" y="877"/>
      <point x="218" y="862" type="curve"/>
    </contour>
    <contour>
      <point x="132" y="789" type="curve"/>
      <point x="132" y="833" type="line"/>
      <point x="128" y="835"/>
      <point x="123" y="836"/>
      <point x="118" y="836" type="curve" smooth="yes"/>
      <point x="114" y="836"/>
      <point x="109" y="835"/>
      <point x="104" y="833" type="curve"/>
      <point x="104" y="789" type="line"/>
      <point x="109" y="787"/>
      <point x="114" y="786"/>
      <point x="118" y="786" type="curve" smooth="yes"/>
      <point x="123" y="786"/>
      <point x="128" y="787"/>
    </contour>
  </outline>
</glyph>
<glyph name="AE" format="1">
  <advance width="353"/>
  <unicode hex="00C6"/>
  <outline>
    <contour>
      <point x="343" y="17" type="line"/>
      <point x="310" y="1"/>
      <point x="272" y="-5"/>
      <point x="235" y="-5" type="curve" smooth="yes"/>
      <point x="199" y="-5"/>
      <point x="160" y="1"/>
      <point x="128" y="17" type="curve"/>
      <point x="128" y="304" type="line"/>
      <point x="108" y="304" type="line"/>
      <point x="108" y="0" type="line"/>
      <point x="10" y="0" type="line"/>
      <point x="10" y="703" type="line"/>
      <point x="43" y="719"/>
      <point x="81" y="725"/>
      <point x="118" y="725" type="curve" smooth="yes"/>
      <point x="137" y="725"/>
      <point x="157" y="723"/>
      <point x="176" y="719" type="curve"/>
      <point x="195" y="723"/>
      <point x="216" y="725"/>
      <point x="235" y="725" type="curve" smooth="yes"/>
      <point x="272" y="725"/>
      <point x="310" y="719"/>
      <point x="343" y="703" type="curve"/>
      <point x="343" y="440" type="line"/>
      <point x="245" y="440" type="line"/>
      <point x="245" y="651" type="line"/>
      <point x="242" y="653"/>
      <point x="239" y="653"/>
      <point x="235" y="653" type="curve" smooth="yes"/>
      <point x="232" y="653"/>
      <point x="229" y="653"/>
      <point x="225" y="651" type="curve"/>
      <point x="225" y="408" type="line"/>
      <point x="327" y="408" type="line"/>
      <point x="327" y="328" type="line"/>
      <point x="225" y="328" type="line"/>
      <point x="225" y="69" type="line"/>
      <point x="228" y="67"/>
      <point x="232" y="67"/>
      <point x="235" y="67" type="curve" smooth="yes"/>
      <point x="239" y="67"/>
      <point x="242" y="67"/>
      <point x="245" y="69" type="curve"/>
      <point x="245" y="285" type="line"/>
      <point x="343" y="285" type="line"/>
    </contour>
    <contour>
      <point x="128" y="375" type="line"/>
      <point x="128" y="654" type="line"/>
      <point x="125" y="656"/>
      <point x="121" y="656"/>
      <point x="118" y="656" type="curve" smooth="yes"/>
      <point x="114" y="656"/>
      <point x="111" y="656"/>
      <point x="108" y="654" type="curve"/>
      <point x="108" y="375" type="line"/>
    </contour>
  </outline>
</glyph>
<glyph name="Ccedilla" format="1">
  <advance width="235"/>
  <unicode hex="00C7"/>
  <outline>
    <contour>
      <point x="225" y="17" type="line"/>
      <point x="206" y="7"/>
      <point x="184" y="1"/>
      <point x="162" y="-2" type="curve"/>
      <point x="162" y="-78" type="line"/>
      <point x="135" y="-94"/>
      <point x="103" y="-101"/>
      <point x="65" y="-101" type="curve" smooth="yes"/>
      <point x="49" y="-101" type="line"/>
      <point x="49" y="-32" type="line"/>
      <point x="58" y="-32" type="line" smooth="yes"/>
      <point x="63" y="-32"/>
      <point x="71" y="-31"/>
      <point x="76" y="-27" type="curve"/>
      <point x="76" y="-2" type="line"/>
      <point x="53" y="1"/>
      <point x="31" y="7"/>
      <point x="10" y="17" type="curve"/>
      <point x="10" y="703" type="line"/>
      <point x="43" y="719"/>
      <point x="81" y="725"/>
      <point x="118" y="725" type="curve" smooth="yes"/>
      <point x="154" y="725"/>
      <point x="193" y="719"/>
      <point x="225" y="703" type="curve"/>
      <point x="225" y="415" type="line"/>
      <point x="128" y="415" type="line"/>
      <point x="128" y="651" type="line"/>
      <point x="125" y="653"/>
      <point x="121" y="653"/>
      <point x="118" y="653" type="curve" smooth="yes"/>
      <point x="114" y="653"/>
      <point x="111" y="653"/>
      <point x="108" y="651" type="curve"/>
      <point x="108" y="69" type="line"/>
      <point x="111" y="67"/>
      <point x="114" y="67"/>
      <point x="118" y="67" type="curve" smooth="yes"/>
      <point x="121" y="67"/>
      <point x="125" y="67"/>
      <point x="128" y="69" type="curve"/>
      <point x="128" y="305" type="line"/>
      <point x="225" y="305" type="line"/>
    </contour>
  </outline>
</glyph>
<glyph name="Eth" format="1">
  <advance width="243"/>
  <unicode hex="00D0"/>
  <outline>
    <contour>
      <point x="233" y="31" type="line"/>
      <point x="199" y="8"/>
      <point x="159" y="0"/>
      <point x="120" y="0" type="curve" smooth="yes"/>
      <point x="18" y="0" type="line"/>
      <point x="18" y="334" type="line"/>
      <point x="0" y="334" type="line"/>
      <point x="0" y="408" type="line"/>
      <point x="18" y="408" type="line"/>
      <point x="18" y="720" type="line"/>
      <point x="120" y="720" type="line" smooth="yes"/>
      <point x="159" y="720"/>
      <point x="199" y="712"/>
      <point x="233" y="689" type="curve"/>
    </contour>
    <contour>
      <point x="135" y="75" type="curve"/>
      <point x="135" y="645" type="line"/>
      <point x="132" y="648"/>
      <point x="125" y="651"/>
      <point x="119" y="651" type="curve" smooth="yes"/>
      <point x="118" y="651"/>
      <point x="116" y="651"/>
      <point x="115" y="651" type="curve"/>
      <point x="115" y="408" type="line"/>
      <point x="125" y="408" type="line"/>
      <point x="125" y="334" type="line"/>
      <point x="115" y="334" type="line"/>
      <point x="115" y="69" type="line"/>
      <point x="116" y="69"/>
      <point x="118" y="69"/>
      <point x="119" y="69" type="curve" smooth="yes"/>
      <point x="125" y="69"/>
      <point x="132" y="72"/>
    </contour>
  </outline>
</glyph>
<glyph name="Oslash" format="1">
  <advance width="235"/>
  <unicode hex="00D8"/>
  <outline>
    <contour>
      <point x="225" y="17" type="line"/>
      <point x="196" y="2"/>
      <point x="162" y="-4"/>
      <point x="129" y="-5" type="curve" smooth="yes"/>
      <point x="128" y="-5"/>
      <point x="128" y="-5"/>
      <point x="127" y="-5" type="curve"/>
      <point x="119" y="-75" type="line"/>
      <point x="20" y="-75" type="line"/>
      <point x="29" y="8" type="line"/>
      <point x="23" y="11"/>
      <point x="16" y="13"/>
      <point x="10" y="17" type="curve"/>
      <point x="10" y="703" type="line"/>
      <point x="39" y="718"/>
      <point x="74" y="725"/>
      <point x="107" y="725" type="curve" smooth="yes"/>
      <point x="108" y="725" type="line"/>
      <point x="117" y="795" type="line"/>
      <point x="215" y="795" type="line"/>
      <point x="205" y="712" type="line"/>
      <point x="212" y="710"/>
      <point x="219" y="707"/>
      <point x="225" y="703" type="curve"/>
    </contour>
    <contour>
      <point x="128" y="69" type="curve"/>
      <point x="128" y="651" type="line"/>
      <point x="125" y="653"/>
      <point x="121" y="653"/>
      <point x="118" y="653" type="curve" smooth="yes"/>
      <point x="114" y="653"/>
      <point x="111" y="653"/>
      <point x="108" y="651" type="curve"/>
      <point x="108" y="69" type="line"/>
      <point x="111" y="67"/>
      <point x="114" y="67"/>
      <point x="118" y="67" type="curve" smooth="yes"/>
      <point x="121" y="67"/>
      <point x="125" y="67"/>
    </contour>
  </outline>
</glyph>
<glyph name="Thorn" format="1">
  <advance width="235"/>
  <unicode hex="00DE"/>
  <outline>
    <contour>
      <point x="225" y="171" type="line"/>
      <point x="195" y="152"/>
      <point x="155" y="143"/>
      <point x="113" y="143" type="curve" smooth="yes"/>
      <point x="108" y="143" type="line"/>
      <point x="108" y="0" type="line"/>
      <point x="10" y="0" type="line"/>
      <point x="10" y="720" type="line"/>
      <point x="108" y="720" type="line"/>
      <point x="108" y="591" type="line"/>
      <point x="113" y="591" type="line" smooth="yes"/>
      <point x="155" y="591"/>
      <point x="195" y="582"/>
      <point x="225" y="562" type="curve"/>
    </contour>
    <contour>
      <point x="128" y="217" type="curve"/>
      <point x="128" y="517" type="line"/>
      <point x="125" y="520"/>
      <point x="118" y="523"/>
      <point x="111" y="523" type="curve" smooth="yes"/>
      <point x="108" y="523" type="line"/>
      <point x="108" y="210" type="line"/>
      <point x="111" y="210" type="line" smooth="yes"/>
      <point x="118" y="210"/>
      <point x="125" y="213"/>
    </contour>
  </outline>
</glyph>
<glyph name="germandbls" format="1">
  <advance width="220"/>
  <unicode hex="00DF"/>
  <outline>
    <contour>
      <point x="210" y="21" type="line"/>
      <point x="181" y="4"/>
      <point x="151" y="0"/>
      <point x="110" y="0" type="curve"/>
      <point x="110" y="85" type="line"/>
      <point x="114" y="85"/>
      <point x="118" y="86"/>
      <point x="120" y="87" type="curve"/>
      <point x="120" y="327" type="line"/>
      <point x="117" y="331"/>
      <point x="110" y="334"/>
      <point x="103" y="334" type="curve" smooth="yes"/>
      <point x="100" y="334" type="line"/>
      <point x="100" y="0" type="line"/>
      <point x="10" y="0" type="line"/>
      <point x="10" y="705" type="line"/>
      <point x="39" y="719"/>
      <point x="74" y="725"/>
      <point x="110" y="725" type="curve" smooth="yes"/>
      <point x="147" y="725"/>
      <point x="181" y="719"/>
      <point x="210" y="705" type="curve"/>
      <point x="210" y="383" type="line"/>
      <point x="200" y="377"/>
      <point x="175" y="371"/>
      <point x="156" y="369" type="curve"/>
      <point x="175" y="366"/>
      <point x="200" y="361"/>
      <point x="210" y="355" type="curve"/>
    </contour>
    <contour>
      <point x="120" y="411" type="curve"/>
      <point x="120" y="657" type="line"/>
      <point x="116" y="659"/>
      <point x="114" y="659"/>
      <point x="110" y="659" type="curve" smooth="yes"/>
      <point x="107" y="659"/>
      <point x="103" y="659"/>
      <point x="100" y="657" type="curve"/>
      <point x="100" y="404" type="line"/>
      <point x="103" y="404" type="line" smooth="yes"/>
      <point x="110" y="404"/>
      <point x="116" y="407"/>
    </contour>
  </outline>
</glyph>
<glyph name="ae" format="1">
  <advance width="330"/>
  <unicode hex="00E6"/>
  <outline>
    <contour>
      <point x="320" y="15" type="line"/>
      <point x="292" y="1"/>
      <point x="257" y="-5"/>
      <point x="220" y="-5" type="curve" smooth="yes"/>
      <point x="201" y="-5"/>
      <point x="183" y="-4"/>
      <point x="166" y="0" type="curve"/>
      <point x="148" y="-4"/>
      <point x="129" y="-5"/>
      <point x="110" y="-5" type="curve" smooth="yes"/>
      <point x="74" y="-5"/>
      <point x="39" y="1"/>
      <point x="10" y="15" type="curve"/>
      <point x="10" y="277" type="line"/>
      <point x="37" y="288"/>
      <point x="69" y="291"/>
      <point x="102" y="291" type="curve" smooth="yes"/>
      <point x="108" y="291"/>
      <point x="116" y="290"/>
      <point x="120" y="289" type="curve"/>
      <point x="120" y="424" type="line"/>
      <point x="117" y="425"/>
      <point x="114" y="426"/>
      <point x="110" y="426" type="curve" smooth="yes"/>
      <point x="107" y="426"/>
      <point x="103" y="425"/>
      <point x="100" y="424" type="curve"/>
      <point x="100" y="318" type="line"/>
      <point x="10" y="318" type="line"/>
      <point x="10" y="465" type="line"/>
      <point x="39" y="479"/>
      <point x="74" y="485"/>
      <point x="110" y="485" type="curve" smooth="yes"/>
      <point x="129" y="485"/>
      <point x="148" y="484"/>
      <point x="165" y="480" type="curve"/>
      <point x="182" y="484"/>
      <point x="201" y="485"/>
      <point x="220" y="485" type="curve" smooth="yes"/>
      <point x="257" y="485"/>
      <point x="292" y="479"/>
      <point x="320" y="465" type="curve"/>
      <point x="320" y="216" type="line"/>
      <point x="210" y="216" type="line"/>
      <point x="210" y="53" type="line"/>
      <point x="213" y="52"/>
      <point x="217" y="51"/>
      <point x="220" y="51" type="curve" smooth="yes"/>
      <point x="224" y="51"/>
      <point x="227" y="52"/>
      <point x="230" y="53" type="curve"/>
      <point x="230" y="183" type="line"/>
      <point x="320" y="183" type="line"/>
    </contour>
    <contour>
      <point x="230" y="269" type="curve"/>
      <point x="230" y="424" type="line"/>
      <point x="227" y="425"/>
      <point x="224" y="426"/>
      <point x="220" y="426" type="curve" smooth="yes"/>
      <point x="217" y="426"/>
      <point x="213" y="425"/>
      <point x="210" y="424" type="curve"/>
      <point x="210" y="269" type="line"/>
      <point x="211" y="269"/>
      <point x="229" y="269"/>
    </contour>
    <contour>
      <point x="120" y="53" type="curve"/>
      <point x="120" y="235" type="line"/>
      <point x="117" y="237"/>
      <point x="114" y="237"/>
      <point x="110" y="237" type="curve" smooth="yes"/>
      <point x="107" y="237"/>
      <point x="103" y="237"/>
      <point x="100" y="235" type="curve"/>
      <point x="100" y="53" type="line"/>
      <point x="103" y="52"/>
      <point x="107" y="51"/>
      <point x="110" y="51" type="curve" smooth="yes"/>
      <point x="114" y="51"/>
      <point x="117" y="52"/>
    </contour>
  </outline>
</glyph>
<glyph name="ccedilla" format="1">
  <advance width="220"/>
  <unicode hex="00E7"/>
  <outline>
    <contour>
      <point x="210" y="15" type="line"/>
      <point x="193" y="6"/>
      <point x="174" y="1"/>
      <point x="153" y="-2" type="curve"/>
      <point x="153" y="-78" type="line"/>
      <point x="125" y="-94"/>
      <point x="95" y="-101"/>
      <point x="58" y="-101" type="curve" smooth="yes"/>
      <point x="41" y="-101" type="line"/>
      <point x="41" y="-32" type="line"/>
      <point x="50" y="-32" type="line" smooth="yes"/>
      <point x="56" y="-32"/>
      <point x="64" y="-31"/>
      <point x="68" y="-27" type="curve"/>
      <point x="68" y="-2" type="line"/>
      <point x="47" y="0"/>
      <point x="27" y="6"/>
      <point x="10" y="15" type="curve"/>
      <point x="10" y="465" type="line"/>
      <point x="39" y="479"/>
      <point x="74" y="485"/>
      <point x="110" y="485" type="curve" smooth="yes"/>
      <point x="147" y="485"/>
      <point x="182" y="479"/>
      <point x="210" y="465" type="curve"/>
      <point x="210" y="275" type="line"/>
      <point x="120" y="275" type="line"/>
      <point x="120" y="417" type="line"/>
      <point x="117" y="419"/>
      <point x="114" y="419"/>
      <point x="110" y="419" type="curve" smooth="yes"/>
      <point x="107" y="419"/>
      <point x="103" y="419"/>
      <point x="100" y="417" type="curve"/>
      <point x="100" y="63" type="line"/>
      <point x="103" y="61"/>
      <point x="107" y="61"/>
      <point x="110" y="61" type="curve" smooth="yes"/>
      <point x="114" y="61"/>
      <point x="117" y="61"/>
      <point x="120" y="63" type="curve"/>
      <point x="120" y="206" type="line"/>
      <point x="210" y="206" type="line"/>
    </contour>
  </outline>
</glyph>
<glyph name="eth" format="1">
  <advance width="220"/>
  <unicode hex="00F0"/>
  <outline>
    <contour>
      <point x="210" y="15" type="line"/>
      <point x="182" y="1"/>
      <point x="147" y="-5"/>
      <point x="110" y="-5" type="curve" smooth="yes"/>
      <point x="74" y="-5"/>
      <point x="39" y="1"/>
      <point x="10" y="15" type="curve"/>
      <point x="10" y="463" type="line"/>
      <point x="37" y="477"/>
      <point x="70" y="482"/>
      <point x="103" y="482" type="curve" smooth="yes"/>
      <point x="109" y="482"/>
      <point x="116" y="481"/>
      <point x="120" y="480" type="curve"/>
      <point x="120" y="568" type="line"/>
      <point x="55" y="568" type="line"/>
      <point x="55" y="650" type="line"/>
      <point x="120" y="650" type="line"/>
      <point x="120" y="720" type="line"/>
      <point x="210" y="720" type="line"/>
      <point x="210" y="650" type="line"/>
      <point x="210" y="650" type="line"/>
      <point x="210" y="568" type="line"/>
      <point x="210" y="568" type="line"/>
    </contour>
    <contour>
      <point x="120" y="63" type="curve"/>
      <point x="120" y="415" type="line"/>
      <point x="117" y="416"/>
      <point x="114" y="417"/>
      <point x="110" y="417" type="curve" smooth="yes"/>
      <point x="107" y="417"/>
      <point x="103" y="416"/>
      <point x="100" y="415" type="curve"/>
      <point x="100" y="63" type="line"/>
      <point x="103" y="61"/>
      <point x="107" y="61"/>
      <point x="110" y="61" type="curve" smooth="yes"/>
      <point x="114" y="61"/>
      <point x="117" y="61"/>
    </contour>
  </outline>
</glyph>
<glyph name="oslash" format="1">
  <advance width="220"/>
  <unicode hex="00F8"/>
  <outline>
    <contour>
      <point x="210" y="15" type="line"/>
      <point x="185" y="2"/>
      <point x="154" y="-5"/>
      <point x="123" y="-5" type="curve" smooth="yes"/>
      <point x="123" y="-5"/>
      <point x="123" y="-5"/>
      <point x="122" y="-5" type="curve"/>
      <point x="113" y="-75" type="line"/>
      <point x="19" y="-75" type="line"/>
      <point x="30" y="6" type="line"/>
      <point x="23" y="8"/>
      <point x="16" y="11"/>
      <point x="10" y="15" type="curve"/>
      <point x="10" y="465" type="line"/>
      <point x="36" y="478"/>
      <point x="66" y="485"/>
      <point x="98" y="485" type="curve" smooth="yes"/>
      <point x="98" y="485"/>
      <point x="98" y="485"/>
      <point x="99" y="485" type="curve"/>
      <point x="108" y="550" type="line"/>
      <point x="201" y="550" type="line"/>
      <point x="190" y="474" type="line"/>
      <point x="197" y="472"/>
      <point x="204" y="469"/>
      <point x="210" y="465" type="curve"/>
    </contour>
    <contour>
      <point x="120" y="63" type="curve"/>
      <point x="120" y="417" type="line"/>
      <point x="117" y="419"/>
      <point x="114" y="419"/>
      <point x="110" y="419" type="curve" smooth="yes"/>
      <point x="107" y="419"/>
      <point x="103" y="419"/>
      <point x="100" y="417" type="curve"/>
      <point x="100" y="63" type="line"/>
      <point x="103" y="61"/>
      <point x="107" y="61"/>
      <point x="110" y="61" type="curve" smooth="yes"/>
      <point x="114" y="61"/>
      <point x="117" y="61"/>
    </contour>
  </outline>
</glyph>
<glyph name="thorn" format="1">
  <advance width="220"/>
  <unicode hex="00FE"/>
  <outline>
    <contour>
      <point x="210" y="17" type="line"/>
      <point x="184" y="3"/>
      <point x="151" y="-2"/>
      <point x="117" y="-2" type="curve" smooth="yes"/>
      <point x="112" y="-2"/>
      <point x="104" y="-1"/>
      <point x="100" y="0" type="curve"/>
      <point x="100" y="-175" type="line"/>
      <point x="10" y="-175" type="line"/>
      <point x="10" y="720" type="line"/>
      <point x="100" y="720" type="line"/>
      <point x="100" y="480" type="line"/>
      <point x="104" y="481"/>
      <point x="112" y="482"/>
      <point x="117" y="482" type="curve" smooth="yes"/>
      <point x="151" y="482"/>
      <point x="184" y="477"/>
      <point x="210" y="463" type="curve"/>
    </contour>
    <contour>
      <point x="120" y="65" type="curve"/>
      <point x="120" y="415" type="line"/>
      <point x="117" y="416"/>
      <point x="114" y="417"/>
      <point x="110" y="417" type="curve" smooth="yes"/>
      <point x="107" y="417"/>
      <point x="104" y="416"/>
      <point x="100" y="415" type="curve"/>
      <point x="100" y="65" type="line"/>
      <point x="103" y="64"/>
      <point x="107" y="63"/>
      <point x="110" y="63" type="curve" smooth="yes"/>
      <point x="114" y="63"/>
      <point x="117" y="64"/>
    </contour>
  </outline>
</glyph>
<glyph name="Lslash" format="1">
  <advance width="174"/>
  <unicode hex="0141"/>
  <outline>
    <contour>
      <point x="170" y="0" type="line"/>
      <point x="22" y="0" type="line"/>
      <point x="22" y="303" type="line"/>
      <point x="0" y="295" type="line"/>
      <point x="0" y="394" type="line"/>
      <point x="22" y="403" type="line"/>
      <point x="22" y="720" type="line"/>
      <point x="120" y="720" type="line"/>
      <point x="120" y="433" type="line"/>
      <point x="153" y="444" type="line"/>
      <point x="153" y="345" type="line"/>
      <point x="120" y="333" type="line"/>
      <point x="120" y="84" type="line"/>
      <point x="170" y="84" type="line"/>
    </contour>
  </outline>
</glyph>
<glyph name="lslash" format="1">
  <advance width="142"/>
  <unicode hex="0142"/>
  <outline>
    <contour>
      <point x="142" y="342" type="line"/>
      <point x="117" y="332" type="line"/>
      <point x="117" y="0" type="line"/>
      <point x="25" y="0" type="line"/>
      <point x="25" y="304" type="line"/>
      <point x="0" y="295" type="line"/>
      <point x="0" y="394" type="line"/>
      <point x="25" y="404" type="line"/>
      <point x="25" y="720" type="line"/>
      <point x="117" y="720" type="line"/>
      <point x="117" y="432" type="line"/>
      <point x="142" y="441" type="line"/>
    </contour>
  </outline>
</glyph>
<glyph name="OE" format="1">
  <advance width="353"/>
  <unicode hex="0152"/>
  <outline>
    <contour>
      <point x="343" y="17" type="line"/>
      <point x="310" y="1"/>
      <point x="272" y="-5"/>
      <point x="235" y="-5" type="curve" smooth="yes"/>
      <point x="216" y="-5"/>
      <point x="196" y="-3"/>
      <point x="176" y="1" type="curve"/>
      <point x="157" y="-3"/>
      <point x="137" y="-5"/>
      <point x="118" y="-5" type="curve" smooth="yes"/>
      <point x="81" y="-5"/>
      <point x="43" y="1"/>
      <point x="10" y="17" type="curve"/>
      <point x="10" y="703" type="line"/>
      <point x="43" y="719"/>
      <point x="81" y="725"/>
      <point x="118" y="725" type="curve" smooth="yes"/>
      <point x="137" y="725"/>
      <point x="157" y="723"/>
      <point x="176" y="719" type="curve"/>
      <point x="195" y="723"/>
      <point x="216" y="725"/>
      <point x="235" y="725" type="curve" smooth="yes"/>
      <point x="272" y="725"/>
      <point x="310" y="719"/>
      <point x="343" y="703" type="curve"/>
      <point x="343" y="440" type="line"/>
      <point x="245" y="440" type="line"/>
      <point x="245" y="651" type="line"/>
      <point x="242" y="653"/>
      <point x="239" y="653"/>
      <point x="235" y="653" type="curve" smooth="yes"/>
      <point x="232" y="653"/>
      <point x="229" y="653"/>
      <point x="225" y="651" type="curve"/>
      <point x="225" y="408" type="line"/>
      <point x="327" y="408" type="line"/>
      <point x="327" y="328" type="line"/>
      <point x="225" y="328" type="line"/>
      <point x="225" y="69" type="line"/>
      <point x="228" y="67"/>
      <point x="232" y="67"/>
      <point x="235" y="67" type="curve" smooth="yes"/>
      <point x="239" y="67"/>
      <point x="242" y="67"/>
      <point x="245" y="69" type="curve"/>
      <point x="245" y="285" type="line"/>
      <point x="343" y="285" type="line"/>
    </contour>
    <contour>
      <point x="128" y="69" type="curve"/>
      <point x="128" y="651" type="line"/>
      <point x="125" y="653"/>
      <point x="121" y="653"/>
      <point x="118" y="653" type="curve" smooth="yes"/>
      <point x="114" y="653"/>
      <point x="111" y="653"/>
      <point x="108" y="651" type="curve"/>
      <point x="108" y="69" type="line"/>
      <point x="111" y="67"/>
      <point x="114" y="67"/>
      <point x="118" y="67" type="curve" smooth="yes"/>
      <point x="121" y="67"/>
      <point x="125" y="67"/>
    </contour>
  </outline>
</glyph>
<glyph name="oe" format="1">
  <advance width="330"/>
  <unicode hex="0153"/>
  <outline>
    <contour>
      <point x="320" y="15" type="line"/>
      <point x="292" y="1"/>
      <point x="257" y="-5"/>
      <point x="220" y="-5" type="curve" smooth="yes"/>
      <point x="201" y="-5"/>
      <point x="183" y="-4"/>
      <point x="165" y="0" type="curve"/>
      <point x="148" y="-4"/>
      <point x="129" y="-5"/>
      <point x="110" y="-5" type="curve" smooth="yes"/>
      <point x="74" y="-5"/>
      <point x="39" y="1"/>
      <point x="10" y="15" type="curve"/>
      <point x="10" y="465" type="line"/>
      <point x="39" y="479"/>
      <point x="74" y="485"/>
      <point x="110" y="485" type="curve" smooth="yes"/>
      <point x="129" y="485"/>
      <point x="147" y="484"/>
      <point x="165" y="480" type="curve"/>
      <point x="182" y="484"/>
      <point x="201" y="485"/>
      <point x="220" y="485" type="curve" smooth="yes"/>
      <point x="257" y="485"/>
      <point x="292" y="479"/>
      <point x="320" y="465" type="curve"/>
      <point x="320" y="216" type="line"/>
      <point x="210" y="216" type="line"/>
      <point x="210" y="62" type="line"/>
      <point x="213" y="61"/>
      <point x="217" y="60"/>
      <point x="220" y="60" type="curve" smooth="yes"/>
      <point x="224" y="60"/>
      <point x="227" y="61"/>
      <point x="230" y="62" type="curve"/>
      <point x="230" y="183" type="line"/>
      <point x="320" y="183" type="line"/>
    </contour>
    <contour>
      <point x="230" y="269" type="curve"/>
      <point x="230" y="424" type="line"/>
      <point x="227" y="425"/>
      <point x="224" y="426"/>
      <point x="220" y="426" type="curve" smooth="yes"/>
      <point x="217" y="426"/>
      <point x="213" y="425"/>
      <point x="210" y="424" type="curve"/>
      <point x="210" y="269" type="line"/>
      <point x="211" y="269"/>
      <point x="229" y="269"/>
    </contour>
    <contour>
      <point x="120" y="62" type="curve"/>
      <point x="120" y="424" type="line"/>
      <point x="117" y="425"/>
      <point x="114" y="426"/>
      <point x="110" y="426" type="curve" smooth="yes"/>
      <point x="107" y="426"/>
      <point x="103" y="425"/>
      <point x="100" y="424" type="curve"/>
      <point x="100" y="62" type="line"/>
      <point x="103" y="61"/>
      <point x="107" y="60"/>
      <point x="110" y="60" type="curve" smooth="yes"/>
      <point x="114" y="60"/>
      <point x="117" y="61"/>
    </contour>
  </outline>
</glyph>
<glyph name="florin" format="1">
  <advance width="141"/>
  <unicode hex="0192"/>
  <outline>
    <contour>
      <point x="136" y="655" type="line"/>
      <point x="124" y="655" type="line" smooth="yes"/>
      <point x="117" y="655"/>
      <point x="108" y="654"/>
      <point x="102" y="649" type="curve"/>
      <point x="102" y="480" type="line"/>
      <point x="133" y="480" type="line"/>
      <point x="133" y="412" type="line"/>
      <point x="102" y="412" type="line"/>
      <point x="102" y="-152" type="line"/>
      <point x="74" y="-168"/>
      <point x="40" y="-178"/>
      <point x="-2" y="-178" type="curve" smooth="yes"/>
      <point x="-24" y="-178" type="line"/>
      <point x="-24" y="-110" type="line"/>
      <point x="-12" y="-110" type="line" smooth="yes"/>
      <point x="-5" y="-110"/>
      <point x="4" y="-109"/>
      <point x="10" y="-104" type="curve"/>
      <point x="10" y="412" type="line"/>
      <point x="10" y="412" type="line"/>
      <point x="10" y="480" type="line"/>
      <point x="10" y="480" type="line"/>
      <point x="10" y="697" type="line"/>
      <point x="38" y="713"/>
      <point x="72" y="723"/>
      <point x="114" y="723" type="curve" smooth="yes"/>
      <point x="136" y="723" type="line"/>
    </contour>
  </outline>
</glyph>
<glyph name="circumflex" format="1">
  <advance width="220"/>
  <unicode hex="02C6"/>
  <outline>
    <contour>
      <point x="210" y="502" type="line"/>
      <point x="123" y="502" type="line"/>
      <point x="110" y="587" type="line"/>
      <point x="97" y="502" type="line"/>
      <point x="10" y="502" type="line"/>
      <point x="42" y="645" type="line"/>
      <point x="178" y="645" type="line"/>
    </contour>
  </outline>
</glyph>
<glyph name="caron" format="1">
  <advance width="220"/>
  <unicode hex="02C7"/>
  <outline>
    <contour>
      <point x="210" y="645" type="line"/>
      <point x="178" y="502" type="line"/>
      <point x="42" y="502" type="line"/>
      <point x="10" y="645" type="line"/>
      <point x="97" y="645" type="line"/>
      <point x="110" y="561" type="line"/>
      <point x="123" y="645" type="line"/>
    </contour>
  </outline>
</glyph>
<glyph name="breve" format="1">
  <advance width="220"/>
  <unicode hex="02D8"/>
  <outline>
    <contour>
      <point x="210" y="522" type="line"/>
      <point x="182" y="508"/>
      <point x="147" y="502"/>
      <point x="110" y="502" type="curve" smooth="yes"/>
      <point x="74" y="502"/>
      <point x="39" y="508"/>
      <point x="10" y="522" type="curve"/>
      <point x="10" y="645" type="line"/>
      <point x="100" y="645" type="line"/>
      <point x="100" y="570" type="line"/>
      <point x="104" y="569"/>
      <point x="107" y="568"/>
      <point x="110" y="568" type="curve" smooth="yes"/>
      <point x="114" y="568"/>
      <point x="117" y="569"/>
      <point x="120" y="570" type="curve"/>
      <point x="120" y="645" type="line"/>
      <point x="210" y="645" type="line"/>
    </contour>
  </outline>
</glyph>
<glyph name="dotaccent" format="1">
  <advance width="220"/>
  <unicode hex="02D9"/>
  <outline>
    <contour>
      <point x="162" y="502" type="line"/>
      <point x="59" y="502" type="line"/>
      <point x="59" y="645" type="line"/>
      <point x="162" y="645" type="line"/>
    </contour>
  </outline>
</glyph>
<glyph name="ring" format="1">
  <advance width="220"/>
  <unicode hex="02DA"/>
  <outline>
    <contour>
      <point x="210" y="522" type="line"/>
      <point x="182" y="508"/>
      <point x="147" y="502"/>
      <point x="110" y="502" type="curve" smooth="yes"/>
      <point x="74" y="502"/>
      <point x="39" y="508"/>
      <point x="10" y="522" type="curve"/>
      <point x="10" y="625" type="line"/>
      <point x="39" y="640"/>
      <point x="74" y="645"/>
      <point x="110" y="645" type="curve" smooth="yes"/>
      <point x="147" y="645"/>
      <point x="182" y="640"/>
      <point x="210" y="625" type="curve"/>
    </contour>
    <contour>
      <point x="124" y="552" type="curve"/>
      <point x="124" y="596" type="line"/>
      <point x="120" y="598"/>
      <point x="115" y="599"/>
      <point x="110" y="599" type="curve" smooth="yes"/>
      <point x="106" y="599"/>
      <point x="101" y="598"/>
      <point x="96" y="596" type="curve"/>
      <point x="96" y="552" type="line"/>
      <point x="101" y="550"/>
      <point x="106" y="549"/>
      <point x="110" y="549" type="curve" smooth="yes"/>
      <point x="115" y="549"/>
      <point x="120" y="550"/>
    </contour>
  </outline>
</glyph>
<glyph name="ogonek" format="1">
  <advance width="220"/>
  <unicode hex="02DB"/>
  <outline>
    <contour>
      <point x="180" y="-101" type="line"/>
      <point x="163" y="-101" type="line" smooth="yes"/>
      <point x="126" y="-101"/>
      <point x="96" y="-94"/>
      <point x="68" y="-78" type="curve"/>
      <point x="68" y="10" type="line"/>
      <point x="153" y="10" type="line"/>
      <point x="153" y="-27" type="line"/>
      <point x="157" y="-31"/>
      <point x="165" y="-32"/>
      <point x="171" y="-32" type="curve" smooth="yes"/>
      <point x="180" y="-32" type="line"/>
    </contour>
  </outline>
</glyph>
<glyph name="tilde" format="1">
  <advance width="220"/>
  <unicode hex="02DC"/>
  <outline>
    <contour>
      <point x="210" y="502" type="line"/>
      <point x="134" y="502" type="line"/>
      <point x="86" y="553" type="line"/>
      <point x="86" y="502" type="line"/>
      <point x="10" y="502" type="line"/>
      <point x="10" y="645" type="line"/>
      <point x="87" y="645" type="line"/>
      <point x="134" y="595" type="line"/>
      <point x="134" y="645" type="line"/>
      <point x="210" y="645" type="line"/>
    </contour>
  </outline>
</glyph>
<glyph name="hungarumlaut" format="1">
  <advance width="220"/>
  <unicode hex="02DD"/>
  <outline>
    <contour>
      <point x="233" y="645" type="line"/>
      <point x="181" y="502" type="line"/>
      <point x="94" y="502" type="line"/>
      <point x="141" y="645" type="line"/>
    </contour>
    <contour>
      <point x="124" y="645" type="line"/>
      <point x="74" y="502" type="line"/>
      <point x="-13" y="502" type="line"/>
      <point x="32" y="645" type="line"/>
    </contour>
  </outline>
</glyph>
<glyph name="endash" format="1">
  <advance width="171"/>
  <unicode hex="2013"/>
  <outline>
    <contour>
      <point x="167" y="269" type="line"/>
      <point x="4" y="269" type="line"/>
      <point x="4" y="356" type="line"/>
      <point x="167" y="356" type="line"/>
    </contour>
  </outline>
</glyph>
<glyph name="emdash" format="1">
  <advance width="231"/>
  <unicode hex="2014"/>
  <outline>
    <contour>
      <point x="227" y="269" type="line"/>
      <point x="4" y="269" type="line"/>
      <point x="4" y="356" type="line"/>
      <point x="227" y="356" type="line"/>
    </contour>
  </outline>
</glyph>
<glyph name="quoteleft" format="1">
  <advance width="112"/>
  <unicode hex="2018"/>
  <unicode hex="02BB"/>
  <outline>
    <contour>
      <point x="108" y="439" type="line"/>
      <point x="15" y="439" type="line"/>
      <point x="3" y="720" type="line"/>
      <point x="96" y="720" type="line"/>
    </contour>
  </outline>
</glyph>
<glyph name="quoteright" format="1">
  <advance width="112"/>
  <unicode hex="2019"/>
  <unicode hex="02BC"/>
  <outline>
    <contour>
      <point x="108" y="720" type="line"/>
      <point x="96" y="439" type="line"/>
      <point x="3" y="439" type="line"/>
      <point x="15" y="720" type="line"/>
    </contour>
  </outline>
</glyph>
<glyph name="quotesinglbase" format="1">
  <advance width="112"/>
  <unicode hex="201A"/>
  <outline>
    <contour>
      <point x="107" y="145" type="line"/>
      <point x="94" y="-106" type="line"/>
      <point x="1" y="-106" type="line"/>
      <point x="14" y="145" type="line"/>
    </contour>
  </outline>
</glyph>
<glyph name="quotedblleft" format="1">
  <advance width="221"/>
  <unicode hex="201C"/>
  <outline>
    <contour>
      <point x="218" y="439" type="line"/>
      <point x="126" y="439" type="line"/>
      <point x="114" y="720" type="line"/>
      <point x="206" y="720" type="line"/>
    </contour>
    <contour>
      <point x="107" y="439" type="line"/>
      <point x="15" y="439" type="line"/>
      <point x="3" y="720" type="line"/>
      <point x="95" y="720" type="line"/>
    </contour>
  </outline>
</glyph>
<glyph name="quotedblright" format="1">
  <advance width="221"/>
  <unicode hex="201D"/>
  <outline>
    <contour>
      <point x="218" y="720" type="line"/>
      <point x="206" y="439" type="line"/>
      <point x="114" y="439" type="line"/>
      <point x="126" y="720" type="line"/>
    </contour>
    <contour>
      <point x="107" y="720" type="line"/>
      <point x="95" y="439" type="line"/>
      <point x="3" y="439" type="line"/>
      <point x="15" y="720" type="line"/>
    </contour>
  </outline>
</glyph>
<glyph name="quotedblbase" format="1">
  <advance width="221"/>
  <unicode hex="201E"/>
  <outline>
    <contour>
      <point x="216" y="145" type="line"/>
      <point x="204" y="-106" type="line"/>
      <point x="112" y="-106" type="line"/>
      <point x="125" y="145" type="line"/>
    </contour>
    <contour>
      <point x="106" y="145" type="line"/>
      <point x="93" y="-106" type="line"/>
      <point x="1" y="-106" type="line"/>
      <point x="14" y="145" type="line"/>
    </contour>
  </outline>
</glyph>
<glyph name="dagger" format="1">
  <advance width="170"/>
  <unicode hex="2020"/>
  <outline>
    <contour>
      <point x="166" y="396" type="line"/>
      <point x="139" y="396" type="line"/>
      <point x="139" y="0" type="line"/>
      <point x="31" y="0" type="line"/>
      <point x="31" y="396" type="line"/>
      <point x="3" y="396" type="line"/>
      <point x="3" y="480" type="line"/>
      <point x="31" y="480" type="line"/>
      <point x="31" y="720" type="line"/>
      <point x="139" y="720" type="line"/>
      <point x="139" y="480" type="line"/>
      <point x="166" y="480" type="line"/>
    </contour>
  </outline>
</glyph>
<glyph name="bullet" format="1">
  <advance width="220"/>
  <unicode hex="2022"/>
  <outline>
    <contour>
      <point x="210" y="194" type="line"/>
      <point x="182" y="179"/>
      <point x="147" y="174"/>
      <point x="110" y="174" type="curve" smooth="yes"/>
      <point x="74" y="174"/>
      <point x="39" y="179"/>
      <point x="10" y="194" type="curve"/>
      <point x="10" y="540" type="line"/>
      <point x="39" y="554"/>
      <point x="74" y="560"/>
      <point x="110" y="560" type="curve" smooth="yes"/>
      <point x="147" y="560"/>
      <point x="182" y="554"/>
      <point x="210" y="540" type="curve"/>
    </contour>
  </outline>
</glyph>
<glyph name="ellipsis" format="1">
  <advance width="335"/>
  <unicode hex="2026"/>
  <outline>
    <contour>
      <point x="325" y="0" type="line"/>
      <point x="233" y="0" type="line"/>
      <point x="233" y="126" type="line"/>
      <point x="325" y="126" type="line"/>
    </contour>
    <contour>
      <point x="214" y="0" type="line"/>
      <point x="122" y="0" type="line"/>
      <point x="122" y="126" type="line"/>
      <point x="214" y="126" type="line"/>
    </contour>
    <contour>
      <point x="102" y="0" type="line"/>
      <point x="10" y="0" type="line"/>
      <point x="10" y="126" type="line"/>
      <point x="102" y="126" type="line"/>
    </contour>
  </outline>
</glyph>
<glyph name="perthousand" format="1">
  <advance width="668"/>
  <unicode hex="2030"/>
  <outline>
    <contour>
      <point x="659" y="13" type="line"/>
      <point x="631" y="-1"/>
      <point x="601" y="-5"/>
      <point x="573" y="-5" type="curve" smooth="yes"/>
      <point x="545" y="-5"/>
      <point x="515" y="-1"/>
      <point x="487" y="13" type="curve"/>
      <point x="487" y="368" type="line"/>
      <point x="515" y="382"/>
      <point x="545" y="386"/>
      <point x="573" y="386" type="curve" smooth="yes"/>
      <point x="601" y="386"/>
      <point x="631" y="382"/>
      <point x="659" y="368" type="curve"/>
    </contour>
    <contour>
      <point x="183" y="352" type="line"/>
      <point x="154" y="339"/>
      <point x="125" y="334"/>
      <point x="96" y="334" type="curve" smooth="yes"/>
      <point x="68" y="334"/>
      <point x="39" y="339"/>
      <point x="10" y="352" type="curve"/>
      <point x="10" y="707" type="line"/>
      <point x="39" y="721"/>
      <point x="68" y="725"/>
      <point x="96" y="725" type="curve" smooth="yes"/>
      <point x="125" y="725"/>
      <point x="154" y="721"/>
      <point x="183" y="707" type="curve"/>
    </contour>
    <contour>
      <point x="316" y="720" type="line"/>
      <point x="249" y="0" type="line"/>
      <point x="163" y="0" type="line"/>
      <point x="230" y="720" type="line"/>
    </contour>
    <contour>
      <point x="469" y="13" type="line"/>
      <point x="441" y="-1"/>
      <point x="411" y="-5"/>
      <point x="383" y="-5" type="curve" smooth="yes"/>
      <point x="355" y="-5"/>
      <point x="325" y="-1"/>
      <point x="297" y="13" type="curve"/>
      <point x="297" y="368" type="line"/>
      <point x="325" y="382"/>
      <point x="355" y="386"/>
      <point x="383" y="386" type="curve" smooth="yes"/>
      <point x="411" y="386"/>
      <point x="441" y="382"/>
      <point x="469" y="368" type="curve"/>
    </contour>
    <contour>
      <point x="583" y="55" type="curve"/>
      <point x="583" y="326" type="line"/>
      <point x="580" y="327"/>
      <point x="577" y="328"/>
      <point x="573" y="328" type="curve" smooth="yes"/>
      <point x="569" y="328"/>
      <point x="566" y="327"/>
      <point x="563" y="326" type="curve"/>
      <point x="563" y="55" type="line"/>
      <point x="566" y="53"/>
      <point x="569" y="53"/>
      <point x="573" y="53" type="curve" smooth="yes"/>
      <point x="577" y="53"/>
      <point x="580" y="53"/>
    </contour>
    <contour>
      <point x="106" y="394" type="curve"/>
      <point x="106" y="664" type="line"/>
      <point x="103" y="666"/>
      <point x="100" y="666"/>
      <point x="96" y="666" type="curve" smooth="yes"/>
      <point x="93" y="666"/>
      <point x="90" y="666"/>
      <point x="86" y="664" type="curve"/>
      <point x="86" y="394" type="line"/>
      <point x="90" y="392"/>
      <point x="93" y="392"/>
      <point x="96" y="392" type="curve" smooth="yes"/>
      <point x="100" y="392"/>
      <point x="103" y="392"/>
    </contour>
    <contour>
      <point x="393" y="55" type="curve"/>
      <point x="393" y="326" type="line"/>
      <point x="390" y="327"/>
      <point x="387" y="328"/>
      <point x="383" y="328" type="curve" smooth="yes"/>
      <point x="379" y="328"/>
      <point x="376" y="327"/>
      <point x="373" y="326" type="curve"/>
      <point x="373" y="55" type="line"/>
      <point x="376" y="53"/>
      <point x="379" y="53"/>
      <point x="383" y="53" type="curve" smooth="yes"/>
      <point x="387" y="53"/>
      <point x="390" y="53"/>
    </contour>
  </outline>
</glyph>
<glyph name="guilsinglleft" format="1">
  <advance width="126"/>
  <unicode hex="2039"/>
  <outline>
    <contour>
      <point x="121" y="35" type="line"/>
      <point x="3" y="186" type="line"/>
      <point x="3" y="295" type="line"/>
      <point x="121" y="445" type="line"/>
      <point x="121" y="314" type="line"/>
      <point x="66" y="240" type="line"/>
      <point x="121" y="167" type="line"/>
    </contour>
  </outline>
</glyph>
<glyph name="guilsinglright" format="1">
  <advance width="126"/>
  <unicode hex="203A"/>
  <outline>
    <contour>
      <point x="123" y="186" type="line"/>
      <point x="5" y="35" type="line"/>
      <point x="5" y="167" type="line"/>
      <point x="60" y="240" type="line"/>
      <point x="5" y="314" type="line"/>
      <point x="5" y="445" type="line"/>
      <point x="123" y="295" type="line"/>
    </contour>
  </outline>
</glyph>
<glyph name="fraction" format="1">
  <advance width="161"/>
  <unicode hex="2044"/>
  <unicode hex="2215"/>
  <outline>
    <contour>
      <point x="158" y="720" type="line"/>
      <point x="103" y="0" type="line"/>
      <point x="4" y="0" type="line"/>
      <point x="59" y="720" type="line"/>
    </contour>
  </outline>
</glyph>
<glyph name="Euro" format="1">
  <advance width="235"/>
  <unicode hex="20AC"/>
  <outline>
    <contour>
      <point x="108" y="369" type="line"/>
      <point x="108" y="351" type="line"/>
      <point x="192" y="351" type="line"/>
      <point x="192" y="265" type="line"/>
      <point x="108" y="265" type="line"/>
      <point x="108" y="69" type="line"/>
      <point x="111" y="67"/>
      <point x="114" y="67"/>
      <point x="118" y="67" type="curve" smooth="yes"/>
      <point x="121" y="67"/>
      <point x="125" y="67"/>
      <point x="128" y="69" type="curve"/>
      <point x="128" y="245" type="line"/>
      <point x="225" y="245" type="line"/>
      <point x="225" y="17" type="line"/>
      <point x="193" y="1"/>
      <point x="154" y="-5"/>
      <point x="118" y="-5" type="curve" smooth="yes"/>
      <point x="81" y="-5"/>
      <point x="43" y="1"/>
      <point x="10" y="17" type="curve"/>
      <point x="10" y="703" type="line"/>
      <point x="43" y="719"/>
      <point x="81" y="725"/>
      <point x="118" y="725" type="curve" smooth="yes"/>
      <point x="154" y="725"/>
      <point x="193" y="719"/>
      <point x="225" y="703" type="curve"/>
      <point x="225" y="475" type="line"/>
      <point x="128" y="475" type="line"/>
      <point x="128" y="651" type="line"/>
      <point x="125" y="653"/>
      <point x="121" y="653"/>
      <point x="118" y="653" type="curve" smooth="yes"/>
      <point x="114" y="653"/>
      <point x="111" y="653"/>
      <point x="108" y="651" type="curve"/>
      <point x="108" y="455" type="line"/>
      <point x="192" y="455" type="line"/>
      <point x="192" y="369" type="line"/>
    </contour>
  </outline>
</glyph>
<glyph name="uni2117" format="1">
  <advance width="349"/>
  <unicode hex="2117"/>
  <outline>
    <contour>
      <point x="339" y="31" type="line"/>
      <point x="291" y="4"/>
      <point x="231" y="-5"/>
      <point x="175" y="-5" type="curve" smooth="yes"/>
      <point x="119" y="-5"/>
      <point x="58" y="4"/>
      <point x="10" y="31" type="curve"/>
      <point x="10" y="689" type="line"/>
      <point x="58" y="716"/>
      <point x="119" y="725"/>
      <point x="175" y="725" type="curve" smooth="yes"/>
      <point x="231" y="725"/>
      <point x="291" y="716"/>
      <point x="339" y="689" type="curve"/>
    </contour>
    <contour>
      <point x="281" y="71" type="curve"/>
      <point x="281" y="649" type="line"/>
      <point x="248" y="664"/>
      <point x="208" y="669"/>
      <point x="175" y="669" type="curve" smooth="yes"/>
      <point x="141" y="669"/>
      <point x="102" y="664"/>
      <point x="69" y="649" type="curve"/>
      <point x="69" y="71" type="line"/>
      <point x="102" y="56"/>
      <point x="141" y="51"/>
      <point x="175" y="51" type="curve" smooth="yes"/>
      <point x="208" y="51"/>
      <point x="248" y="56"/>
    </contour>
    <contour>
      <point x="258" y="331" type="line"/>
      <point x="235" y="314"/>
      <point x="203" y="306"/>
      <point x="170" y="306" type="curve" smooth="yes"/>
      <point x="165" y="306" type="line"/>
      <point x="165" y="83" type="line"/>
      <point x="91" y="83" type="line"/>
      <point x="91" y="640" type="line"/>
      <point x="170" y="640" type="line" smooth="yes"/>
      <point x="203" y="640"/>
      <point x="235" y="633"/>
      <point x="258" y="616" type="curve"/>
    </contour>
    <contour>
      <point x="185" y="370" type="curve"/>
      <point x="185" y="582" type="line"/>
      <point x="182" y="585"/>
      <point x="175" y="588"/>
      <point x="169" y="588" type="curve" smooth="yes"/>
      <point x="168" y="588"/>
      <point x="166" y="588"/>
      <point x="165" y="588" type="curve"/>
      <point x="165" y="363" type="line"/>
      <point x="166" y="363"/>
      <point x="168" y="363"/>
      <point x="169" y="363" type="curve" smooth="yes"/>
      <point x="175" y="363"/>
      <point x="182" y="366"/>
    </contour>
  </outline>
</glyph>
<glyph name="trademark" format="1">
  <advance width="423"/>
  <unicode hex="2122"/>
  <outline>
    <contour>
      <point x="413" y="280" type="line"/>
      <point x="341" y="280" type="line"/>
      <point x="341" y="666" type="line"/>
      <point x="336" y="668"/>
      <point x="327" y="669"/>
      <point x="321" y="669" type="curve"/>
      <point x="321" y="280" type="line"/>
      <point x="250" y="280" type="line"/>
      <point x="250" y="669" type="line"/>
      <point x="244" y="669"/>
      <point x="235" y="668"/>
      <point x="230" y="666" type="curve"/>
      <point x="230" y="280" type="line"/>
      <point x="158" y="280" type="line"/>
      <point x="158" y="705" type="line"/>
      <point x="194" y="718"/>
      <point x="237" y="724"/>
      <point x="286" y="724" type="curve" smooth="yes"/>
      <point x="334" y="724"/>
      <point x="378" y="718"/>
      <point x="413" y="705" type="curve"/>
    </contour>
    <contour>
      <point x="145" y="657" type="line"/>
      <point x="111" y="657" type="line"/>
      <point x="111" y="280" type="line"/>
      <point x="37" y="280" type="line"/>
      <point x="37" y="657" type="line"/>
      <point x="3" y="657" type="line"/>
      <point x="3" y="720" type="line"/>
      <point x="145" y="720" type="line"/>
    </contour>
  </outline>
</glyph>
<glyph name="radical" format="1">
  <advance width="230"/>
  <unicode hex="221A"/>
  <outline>
    <contour>
      <point x="227" y="720" type="line"/>
      <point x="170" y="0" type="line"/>
      <point x="40" y="0" type="line"/>
      <point x="3" y="311" type="line"/>
      <point x="92" y="311" type="line"/>
      <point x="103" y="108" type="line"/>
      <point x="137" y="720" type="line"/>
    </contour>
  </outline>
</glyph>
<glyph name="apple" format="1">
  <advance width="235"/>
  <unicode hex="F8FF"/>
  <outline>
    <contour>
      <point x="225" y="436" type="line"/>
      <point x="128" y="436" type="line"/>
      <point x="128" y="651" type="line"/>
      <point x="125" y="653"/>
      <point x="121" y="653"/>
      <point x="118" y="653" type="curve" smooth="yes"/>
      <point x="114" y="653"/>
      <point x="111" y="653"/>
      <point x="108" y="651" type="curve"/>
      <point x="108" y="436" type="line"/>
      <point x="10" y="436" type="line"/>
      <point x="10" y="703" type="line"/>
      <point x="43" y="719"/>
      <point x="81" y="725"/>
      <point x="118" y="725" type="curve" smooth="yes"/>
      <point x="154" y="725"/>
      <point x="193" y="719"/>
      <point x="225" y="703" type="curve"/>
    </contour>
    <contour>
      <point x="219" y="324" type="line"/>
      <point x="165" y="324" type="line"/>
      <point x="165" y="301" type="line"/>
      <point x="71" y="301" type="line"/>
      <point x="71" y="324" type="line"/>
      <point x="16" y="324" type="line"/>
      <point x="16" y="397" type="line"/>
      <point x="71" y="397" type="line"/>
      <point x="71" y="419" type="line"/>
      <point x="165" y="419" type="line"/>
      <point x="165" y="397" type="line"/>
      <point x="219" y="397" type="line"/>
    </contour>
    <contour>
      <point x="225" y="17" type="line"/>
      <point x="193" y="1"/>
      <point x="154" y="-5"/>
      <point x="118" y="-5" type="curve" smooth="yes"/>
      <point x="81" y="-5"/>
      <point x="43" y="1"/>
      <point x="10" y="17" type="curve"/>
      <point x="10" y="284" type="line"/>
      <point x="108" y="284" type="line"/>
      <point x="108" y="69" type="line"/>
      <point x="111" y="67"/>
      <point x="114" y="67"/>
      <point x="118" y="67" type="curve" smooth="yes"/>
      <point x="121" y="67"/>
      <point x="125" y="67"/>
      <point x="128" y="69" type="curve"/>
      <point x="128" y="284" type="line"/>
      <point x="225" y="284" type="line"/>
    </contour>
  </outline>
</glyph>
<glyph name="registered" format="1">
  <advance width="349"/>
  <outline>
    <contour>
      <point x="339" y="31" type="line"/>
      <point x="291" y="4"/>
      <point x="231" y="-5"/>
      <point x="175" y="-5" type="curve" smooth="yes"/>
      <point x="119" y="-5"/>
      <point x="58" y="4"/>
      <point x="10" y="31" type="curve"/>
      <point x="10" y="689" type="line"/>
      <point x="58" y="716"/>
      <point x="119" y="725"/>
      <point x="175" y="725" type="curve" smooth="yes"/>
      <point x="231" y="725"/>
      <point x="291" y="716"/>
      <point x="339" y="689" type="curve"/>
    </contour>
    <contour>
      <point x="281" y="71" type="curve"/>
      <point x="281" y="649" type="line"/>
      <point x="248" y="664"/>
      <point x="208" y="669"/>
      <point x="175" y="669" type="curve" smooth="yes"/>
      <point x="141" y="669"/>
      <point x="102" y="664"/>
      <point x="69" y="649" type="curve"/>
      <point x="69" y="71" type="line"/>
      <point x="102" y="56"/>
      <point x="141" y="51"/>
      <point x="175" y="51" type="curve" smooth="yes"/>
      <point x="208" y="51"/>
      <point x="248" y="56"/>
    </contour>
    <contour>
      <point x="259" y="83" type="line"/>
      <point x="185" y="83" type="line"/>
      <point x="185" y="338" type="line"/>
      <point x="182" y="341"/>
      <point x="175" y="344"/>
      <point x="169" y="344" type="curve" smooth="yes"/>
      <point x="166" y="344" type="line"/>
      <point x="166" y="83" type="line"/>
      <point x="92" y="83" type="line"/>
      <point x="92" y="640" type="line"/>
      <point x="170" y="640" type="line" smooth="yes"/>
      <point x="203" y="640"/>
      <point x="235" y="634"/>
      <point x="258" y="617" type="curve"/>
      <point x="258" y="388" type="line"/>
      <point x="250" y="383"/>
      <point x="231" y="378"/>
      <point x="216" y="375" type="curve"/>
      <point x="231" y="373"/>
      <point x="250" y="367"/>
      <point x="259" y="362" type="curve"/>
    </contour>
    <contour>
      <point x="185" y="400" type="curve"/>
      <point x="185" y="585" type="line"/>
      <point x="182" y="588"/>
      <point x="175" y="590"/>
      <point x="169" y="590" type="curve" smooth="yes"/>
      <point x="166" y="590" type="line"/>
      <point x="166" y="394" type="line"/>
      <point x="169" y="394" type="line" smooth="yes"/>
      <point x="175" y="394"/>
      <point x="182" y="397"/>
    </contour>
  </outline>
</glyph>
